<?xml version="1.0" standalone="no"?>
<!DOCTYPE svg PUBLIC "-//W3C//DTD SVG 20010904//EN"
 "http://www.w3.org/TR/2001/REC-SVG-20010904/DTD/svg10.dtd">
<svg version="1.0" xmlns="http://www.w3.org/2000/svg"
 width="1024.000000pt" height="1024.000000pt" viewBox="0 0 1024.000000 1024.000000"
 preserveAspectRatio="xMidYMid meet">

<g transform="translate(0.000000,1024.000000) scale(0.100000,-0.100000)"
fill="#000000" stroke="none">
<path d="M0 5120 l0 -5120 5120 0 5120 0 0 5120 0 5120 -5120 0 -5120 0 0
-5120z m9498 4202 c2 -248 0 -291 -15 -340 l-18 -56 -6 44 c-6 42 -2 195 18
640 7 163 8 169 13 85 3 -49 7 -217 8 -373z m-3665 234 c138 -52 222 -116 297
-226 64 -94 85 -168 84 -295 0 -101 -17 -205 -31 -191 -3 3 -10 29 -14 57 -13
82 -60 169 -133 247 -105 111 -234 185 -380 217 -45 9 -53 13 -29 14 98 3 262
-65 357 -149 72 -63 121 -121 170 -203 21 -34 35 -51 32 -37 -4 14 -10 41 -13
60 -9 52 -47 133 -94 200 -23 33 -43 60 -44 60 -1 0 -1 -10 0 -22 2 -13 8 -22
14 -20 6 1 10 -1 10 -5 -3 -18 2 -30 27 -58 25 -29 74 -116 74 -132 0 -4 -27
34 -59 84 -42 65 -77 106 -120 139 -74 57 -80 70 -10 19 28 -20 53 -34 55 -32
5 4 -29 35 -76 70 -16 11 -18 16 -7 13 25 -8 21 -1 -10 20 -24 15 -26 15 -14
1 20 -25 0 -21 -39 8 -36 26 -34 33 3 14 20 -10 20 -10 7 4 -24 24 -109 48
-191 54 -92 7 -180 -7 -278 -45 l-73 -28 118 3 119 3 -85 -19 c-110 -24 -137
-35 -173 -71 -17 -16 -35 -27 -40 -23 -6 3 -7 1 -3 -5 8 -14 -12 -55 -23 -48
-5 3 -18 -29 -31 -71 -19 -65 -22 -92 -18 -177 l5 -101 -24 70 -23 70 6 -65
c11 -120 32 -173 109 -274 61 -80 23 -49 -49 39 -54 68 -73 100 -92 161 -48
151 -41 273 22 393 83 159 222 264 396 301 69 15 199 3 271 -24z m-33 -146
c13 -9 13 -10 0 -9 -8 1 -26 5 -40 9 l-25 8 25 1 c14 0 32 -4 40 -9z m2999
-145 c158 -20 278 -46 411 -89 119 -39 104 -44 -60 -21 -317 44 -395 49 -710
49 -348 1 -461 -11 -720 -74 -466 -114 -838 -292 -992 -477 -47 -56 -49 -35
-5 38 18 30 37 61 42 69 5 9 0 8 -13 -4 -12 -11 -24 -17 -27 -14 -10 10 53 72
125 122 296 209 789 372 1250 416 140 13 553 4 699 -15z m-659 -121 c-435 -71
-650 -129 -907 -241 -264 -115 -446 -255 -565 -432 -48 -71 -49 -57 -2 28 49
89 101 149 194 224 190 152 464 275 795 356 118 29 352 68 450 74 106 7 117 4
35 -9z m-2978 -392 c3 -58 10 -78 52 -152 27 -47 58 -96 70 -110 l21 -25 -24
20 c-46 39 -161 238 -161 281 0 32 10 54 25 54 9 0 14 -21 17 -68z m4184 -160
c9 -62 -6 -103 -85 -222 -45 -69 -86 -148 -120 -232 -53 -132 -153 -353 -239
-523 -69 -137 -89 -192 -102 -272 -6 -37 -23 -116 -37 -175 -30 -118 -31 -105
22 -293 12 -42 16 -80 12 -127 -4 -48 -1 -81 10 -114 31 -91 -5 -228 -86 -324
-36 -43 -102 -52 -160 -22 l-40 21 -48 -85 c-51 -92 -58 -98 -117 -109 l-38
-8 18 23 c11 12 27 30 36 39 10 10 38 55 63 102 l46 84 -62 59 -61 60 -19 -25
c-10 -13 -33 -52 -50 -86 -23 -44 -50 -76 -96 -115 -86 -72 -116 -85 -153 -71
-24 9 -30 9 -30 -3 0 -21 -69 -93 -95 -100 -13 -3 -36 1 -52 9 -28 15 -102 91
-136 140 -9 15 -23 24 -31 21 -26 -10 -140 15 -160 36 -19 19 -21 34 -23 178
-1 142 1 164 23 229 13 39 24 88 24 107 0 20 -18 107 -41 194 -39 154 -85 260
-109 254 -6 -1 -9 2 -5 7 5 9 -44 91 -170 281 -46 70 -61 82 -200 177 -189
128 -284 223 -343 342 -57 113 -54 141 4 54 25 -37 65 -88 88 -111 38 -41 159
-139 234 -191 l32 -23 -21 53 c-11 29 -36 78 -55 109 -38 62 -46 92 -17 69 13
-11 17 -11 20 -2 3 9 10 10 22 3 10 -5 22 -6 26 -2 5 4 5 1 0 -7 -5 -9 -3 -12
6 -9 19 6 36 -18 110 -152 71 -131 114 -190 137 -190 8 0 12 -3 9 -7 -8 -8 56
-53 75 -53 8 0 24 -7 36 -16 26 -18 30 -1 7 30 -8 11 -15 29 -15 41 0 40 -42
180 -56 188 -11 6 -11 12 -2 26 9 15 6 27 -14 64 -17 29 -21 44 -12 40 16 -6
18 11 4 37 -8 16 -8 18 5 14 8 -4 15 -12 15 -20 0 -24 2 -28 32 -71 25 -37
114 -111 122 -101 2 1 11 20 21 41 17 37 48 52 43 20 -2 -11 16 -30 51 -55 30
-21 50 -38 45 -38 -5 0 -4 -4 3 -8 7 -4 9 -13 4 -20 -5 -8 -24 4 -64 39 -47
42 -57 47 -57 30 0 -22 36 -52 121 -100 l57 -31 46 90 c51 100 51 100 34 100
-7 0 -22 8 -33 16 -19 15 -18 16 19 12 38 -4 42 -1 116 74 54 55 84 78 101 78
14 0 57 -15 96 -34 49 -24 73 -31 77 -23 2 7 5 1 6 -13 0 -15 23 -50 59 -89
l58 -64 76 56 c41 31 78 60 81 66 3 5 -3 27 -15 48 l-21 38 26 -30 c18 -21 34
-29 55 -29 17 1 28 -3 25 -8 -6 -9 14 -68 23 -68 4 0 90 64 141 106 l33 27 -7
112 c-6 97 -5 112 9 112 11 0 17 -17 22 -71 4 -39 10 -89 14 -111 l8 -40 11
28 c11 26 29 40 19 14 -3 -8 1 -14 8 -14 7 0 11 6 8 13 -2 6 0 15 6 19 7 3 8
0 5 -9 -7 -19 4 -20 26 -3 15 11 -15 -18 -67 -65 -18 -16 -23 -31 -23 -73 0
-30 4 -56 8 -59 4 -3 31 22 59 55 42 48 53 68 58 107 3 26 12 81 20 122 8 41
27 145 42 231 24 135 29 154 41 138 10 -15 10 -41 -3 -146 -14 -115 -36 -256
-52 -338 l-6 -30 37 34 c19 19 57 46 83 60 40 22 54 38 84 94 36 70 89 148
145 218 38 46 59 124 48 177 -7 34 -8 31 -15 -38 -7 -74 -24 -138 -35 -127 -3
3 2 39 10 81 9 41 16 92 16 113 l1 38 24 -30 c14 -16 27 -49 31 -73z m95 -867
c-17 -55 -41 -136 -55 -180 -24 -77 -25 -78 -21 -30 3 28 7 91 10 140 3 50 10
140 15 200 5 61 12 166 15 235 3 69 12 168 20 220 8 52 20 140 27 195 12 95
13 82 16 -290 l2 -390 -29 -100z m-3491 733 c29 -73 79 -117 257 -229 160
-101 237 -160 361 -279 60 -58 134 -128 164 -155 54 -50 55 -51 62 -120 6 -67
-2 -146 -23 -210 -7 -23 -10 -5 -12 85 l-2 115 -7 -115 c-22 -339 -45 -540
-66 -559 -4 -3 -3 8 0 25 8 35 20 194 37 477 10 179 10 189 -7 203 -18 14 -17
15 14 10 46 -8 32 9 -38 44 -62 31 -92 58 -45 40 34 -13 48 -13 40 0 -11 18
-168 132 -255 185 -208 128 -483 309 -499 328 -9 11 13 5 64 -18 43 -20 79
-34 80 -33 2 2 -30 28 -72 58 -74 55 -94 73 -131 119 -12 16 -34 27 -63 31
-24 4 -37 9 -29 12 23 9 134 46 140 47 3 0 16 -27 30 -61z m874 40 c-37 -60
-114 -166 -114 -157 0 16 36 75 77 127 32 40 53 57 37 30z m-1374 -93 c47 -25
111 -67 141 -94 30 -27 90 -70 133 -95 44 -26 117 -75 165 -109 47 -34 91 -62
99 -63 53 -8 143 -120 226 -281 37 -70 75 -139 86 -153 l20 -25 0 23 c0 13 6
30 14 37 12 12 15 11 20 -11 9 -33 17 -25 26 23 l6 38 17 -32 c9 -18 17 -46
17 -63 0 -17 4 -29 9 -25 6 3 6 -7 0 -27 -5 -18 -10 -64 -10 -103 l-2 -70 -6
57 c-3 31 -10 60 -15 65 -5 4 -5 -2 -1 -16 4 -14 3 -21 -2 -18 -5 3 -9 -2 -9
-11 0 -54 -5 -82 -17 -94 -8 -7 -17 -27 -21 -43 -7 -27 -9 -28 -16 -10 -6 17
-9 14 -19 -20 -6 -22 -11 -56 -11 -75 0 -24 -3 -31 -9 -21 -6 10 -11 -4 -16
-45 -9 -78 -13 -88 -16 -39 -2 24 -5 8 -8 -40 l-6 -80 -17 60 -18 60 5 -125
c3 -83 1 -120 -5 -110 -7 11 -10 0 -11 -40 -1 -43 -3 -49 -9 -30 l-8 25 -1
-24 c-1 -14 -18 -40 -43 -64 -36 -35 -43 -37 -48 -22 -6 16 -12 13 -47 -22
-22 -22 -47 -60 -56 -84 l-15 -44 -11 28 c-6 16 -11 37 -11 47 0 29 35 103 58
124 12 10 19 23 15 29 -3 5 -1 7 5 3 5 -3 12 -3 14 1 1 5 26 24 55 43 74 49
85 79 57 150 -14 33 -21 40 -52 46 -63 10 -73 15 -85 41 -10 23 -9 28 11 41
32 21 27 29 -19 30 -25 1 -46 8 -53 18 -6 8 -18 16 -26 18 -37 6 -59 18 -65
35 -7 25 -51 64 -72 66 -10 1 -27 6 -38 12 -20 11 -151 39 -210 45 -30 4 -30
4 10 16 22 6 65 12 95 12 39 0 51 3 40 10 -8 5 -28 10 -45 10 l-29 0 22 22 22
22 27 -26 c35 -33 192 -72 253 -62 37 6 40 4 50 -22 6 -15 9 -37 7 -48 -3 -16
-5 -15 -6 6 -1 31 -17 44 -34 29 -7 -5 -25 -15 -40 -20 -24 -10 -29 -8 -37 12
-8 20 -9 19 -9 -10 -1 -23 4 -33 14 -33 8 0 16 0 18 -1 1 0 27 -6 57 -13 57
-13 76 -38 33 -44 -13 -2 -23 -10 -23 -18 0 -18 70 -20 70 -1 1 17 29 -34 30
-54 0 -8 14 -28 32 -45 17 -16 28 -23 24 -16 -4 6 -3 12 2 12 5 0 14 32 21 72
14 85 63 236 97 297 13 24 21 47 18 52 -3 5 0 8 7 7 46 -10 -13 99 -152 282
-112 148 -193 235 -210 225 -7 -5 -10 -4 -6 2 9 14 -80 96 -95 87 -6 -4 -9 -3
-6 2 7 11 -61 64 -129 102 -28 15 -77 52 -111 83 -33 31 -103 82 -156 114 -53
31 -96 59 -96 61 0 7 52 -16 140 -61z m1269 -225 c0 -9 -4 -8 -9 5 -5 11 -9
27 -9 35 0 9 4 8 9 -5 5 -11 9 -27 9 -35z m314 -140 c8 -32 -10 -23 -22 11 -9
26 -9 29 3 20 8 -7 16 -21 19 -31z m-1603 -419 c14 -7 36 -28 50 -46 23 -31
118 -85 149 -85 29 0 6 -20 -41 -36 -61 -20 -84 -21 -107 -1 -25 22 -118 49
-143 42 -22 -6 -22 -6 2 14 27 22 36 24 88 21 22 -1 32 3 32 13 0 22 -21 33
-65 35 -22 1 -52 5 -67 8 -18 4 -28 1 -28 -6 0 -7 -7 -10 -16 -6 -12 5 -15 2
-10 -10 5 -13 2 -15 -15 -11 -28 8 -49 -2 -49 -21 0 -15 -1 -15 -16 0 -22 21
-66 2 -58 -26 5 -16 2 -17 -25 -11 -20 4 -31 3 -31 -4 0 -6 5 -11 12 -11 9 0
9 -3 1 -11 -8 -8 -17 -8 -31 0 -11 6 -27 11 -34 10 -10 0 -10 -2 0 -6 17 -7
15 -23 -3 -23 -17 0 -20 -11 -6 -25 6 -6 4 -18 -6 -30 -11 -14 -17 -16 -20 -7
-8 21 -35 14 -28 -8 5 -14 2 -18 -8 -15 -17 7 -40 -40 -32 -66 7 -21 -10 -27
-18 -6 -4 7 -6 6 -6 -4 -1 -9 -8 -22 -16 -29 -8 -7 -15 -19 -15 -28 0 -8 -7
-24 -16 -34 -14 -15 -15 -20 -4 -33 10 -12 10 -19 2 -27 -16 -16 -16 -148 -1
-148 7 0 9 -12 7 -32 -3 -18 -1 -47 4 -66 7 -26 12 -31 23 -22 10 9 15 5 20
-20 4 -18 28 -51 57 -80 77 -75 27 -59 -54 18 -22 21 -41 31 -49 27 -8 -6 -10
-4 -4 5 5 8 -3 21 -21 37 -16 13 -22 21 -14 17 12 -5 12 -4 3 6 -6 7 -9 19 -6
26 3 8 0 14 -7 14 -7 0 -9 8 -5 19 3 12 0 21 -10 25 -18 7 -21 66 -3 84 9 9 9
15 0 24 -16 16 -15 63 1 77 8 6 17 8 20 4 4 -3 7 -1 7 6 0 6 -7 14 -15 17 -21
9 -19 41 4 54 14 7 21 6 24 -3 3 -7 6 -5 6 6 1 15 -9 21 -30 19 -3 -1 -6 6 -6
14 0 7 4 14 8 14 4 0 18 21 31 47 13 25 31 48 41 51 9 2 16 12 15 21 -2 9 7
20 20 26 12 5 22 15 22 21 0 6 12 20 27 30 14 10 36 29 48 41 11 12 34 25 50
29 17 4 38 18 48 31 13 17 28 23 50 22 18 0 54 8 82 19 55 22 144 23 185 3z
m-250 -101 c0 -5 -4 -10 -10 -10 -5 0 -10 5 -10 10 0 6 5 10 10 10 6 0 10 -4
10 -10z m139 -291 c41 -25 36 -35 -7 -13 -63 31 -106 1 -85 -58 l12 -33 -19
24 c-38 45 -16 101 38 101 15 0 42 -9 61 -21z m386 -540 c25 -29 68 -99 62
-99 -7 0 -99 117 -122 155 l-18 30 29 -31 c16 -18 38 -42 49 -55z m791 -136
c24 -196 51 -265 202 -508 190 -307 249 -407 308 -526 89 -179 108 -229 190
-499 56 -186 84 -386 82 -590 -1 -151 -1 -153 -9 -65 -24 261 -33 331 -55 445
-22 118 -65 267 -85 300 -10 16 -9 13 11 -81 11 -55 36 -270 44 -384 5 -73 3
-68 -18 55 -13 74 -29 155 -35 180 -22 97 -90 319 -120 392 -69 173 -235 481
-271 503 -6 3 15 -41 45 -98 67 -126 72 -151 9 -43 -52 89 -176 265 -240 342
-51 61 -186 164 -266 205 -95 48 -202 87 -314 115 -57 15 -103 28 -101 30 12
13 392 -69 474 -102 l38 -15 -30 26 c-58 50 -209 116 -330 144 l-40 9 48 1
c58 1 183 -25 215 -46 13 -8 26 -13 28 -10 5 4 -102 107 -156 150 -31 25 -32
27 -10 21 52 -13 188 -84 251 -132 36 -28 105 -92 154 -143 48 -52 77 -78 63
-59 -43 59 -150 249 -174 309 -42 101 -27 114 19 17 l42 -88 -3 116 c-4 113 8
250 15 181 2 -16 10 -85 19 -152z m-426 137 c0 -5 -5 -10 -11 -10 -5 0 -7 5
-4 10 3 6 8 10 11 10 2 0 4 -4 4 -10z m-17 -240 c40 -12 -284 -3 -353 10 -30
6 13 7 125 4 l170 -5 -22 23 c-29 32 -60 97 -68 143 -6 35 0 28 54 -62 50 -84
67 -104 94 -113z m-708 -76 c95 -34 75 -43 -42 -19 -43 9 -108 19 -145 22 -38
3 -68 9 -68 14 0 29 155 19 255 -17z m-212 -18 l39 -7 -38 -19 c-20 -11 -41
-17 -47 -13 -6 3 -7 1 -3 -5 3 -6 -2 -16 -13 -21 -25 -14 -34 -14 -26 -1 4 6
-1 7 -11 3 -11 -4 -13 -8 -6 -11 13 -4 -86 -99 -100 -94 -4 1 -7 -2 -5 -6 1
-4 -18 -30 -42 -57 -33 -37 -37 -40 -17 -12 16 21 26 41 23 43 -7 7 -117 -139
-117 -154 0 -6 -9 -17 -19 -24 -11 -8 -24 -29 -30 -48 l-11 -35 4 43 c2 24 3
42 2 40 -2 -2 -33 -63 -69 -136 -59 -119 -63 -131 -39 -114 24 17 111 42 145
42 7 0 -14 -15 -45 -33 -77 -44 -179 -124 -176 -139 2 -7 -3 -12 -11 -10 -15
3 -61 -35 -61 -51 0 -6 12 0 28 14 15 13 0 -4 -33 -39 -33 -34 -62 -62 -64
-62 -3 0 13 19 34 42 22 23 31 36 21 28 -32 -24 -91 -92 -91 -105 0 -6 -8 -23
-18 -36 -18 -24 -18 -24 -2 6 14 26 11 24 -19 -10 -36 -40 -47 -63 -23 -49 8
5 8 3 -2 -9 -7 -9 -17 -15 -21 -12 -5 3 -31 -23 -58 -57 -76 -96 -172 -182
-262 -233 -8 -5 26 34 75 87 50 53 99 111 109 129 l20 34 -47 -41 c-25 -22
-112 -76 -192 -120 -81 -43 -217 -121 -303 -173 -86 -52 -244 -138 -350 -192
-107 -55 -192 -99 -190 -99 11 1 87 33 173 74 196 95 285 135 285 130 0 -7
-369 -184 -429 -205 -30 -10 -57 -17 -59 -14 -3 3 1 5 8 5 7 0 10 3 7 6 -4 4
-12 2 -19 -3 -11 -9 -59 -29 -163 -68 -16 -6 -10 -10 30 -20 49 -12 48 -13
-70 -15 -112 -1 -117 -2 -80 -14 38 -12 36 -12 -38 -8 l-78 5 -128 -66 c-153
-79 -299 -131 -342 -122 -23 5 -36 1 -60 -19 -66 -56 -243 -145 -258 -131 -3
4 19 29 49 56 30 28 54 55 52 60 -1 6 2 8 8 4 5 -3 13 1 16 9 3 9 10 16 16 16
5 0 24 11 42 25 18 14 36 25 40 25 5 0 36 17 69 37 75 44 138 102 130 117 -3
6 -3 8 2 4 9 -9 37 11 31 21 -6 9 1 9 194 20 150 9 203 15 310 37 68 14 550
236 550 253 0 4 6 8 13 8 7 0 91 47 187 105 96 58 205 120 242 138 38 18 65
36 62 41 -3 5 3 6 12 2 13 -5 15 -3 9 7 -6 10 -4 12 9 7 10 -4 50 10 104 37
65 33 103 60 150 110 38 39 60 70 56 77 -4 7 -3 9 3 6 15 -9 87 69 78 84 -5 7
-4 10 2 6 10 -6 49 28 55 48 2 6 6 9 9 8 7 -2 77 68 81 82 2 5 10 11 18 12 26
4 88 82 109 138 11 30 37 87 56 125 20 39 33 76 29 82 -4 7 -3 8 4 4 7 -4 12
-1 12 7 0 7 18 39 40 71 42 60 48 72 28 60 -9 -6 -9 -3 0 9 8 9 10 22 6 28 -5
8 -3 9 5 5 7 -5 10 -15 7 -25 -4 -9 7 0 23 19 16 19 27 39 24 44 -4 5 -1 6 5
2 6 -3 33 13 60 37 26 24 84 61 128 83 43 21 81 43 82 47 2 4 9 4 15 -1 7 -5
29 -13 50 -16z m714 -22 c-3 -3 -12 -4 -19 -1 -8 3 -5 6 6 6 11 1 17 -2 13 -5z
m174 -202 c79 -28 171 -62 203 -76 147 -61 296 -169 340 -247 l19 -34 -39 37
c-110 103 -299 209 -566 318 -71 29 -128 54 -128 57 0 3 6 3 13 0 8 -3 78 -28
158 -55z m217 -18 c53 -20 106 -42 117 -49 86 -53 165 -107 170 -115 4 -6 -11
1 -32 16 -52 35 -234 125 -310 154 -35 12 -63 24 -63 26 0 9 27 2 118 -32z
m-388 -6 c248 -65 454 -173 615 -324 l70 -65 -75 54 c-219 157 -476 280 -725
348 l-70 19 55 -6 c30 -4 89 -15 130 -26z m501 15 c13 -16 12 -17 -3 -4 -10 7
-18 15 -18 17 0 8 8 3 21 -13z m94 -64 c28 -20 59 -47 70 -59 11 -13 -5 -3
-36 21 -30 24 -69 54 -85 67 -44 35 -6 13 51 -29z m-133 -295 c118 -41 238
-102 352 -181 79 -54 81 -52 22 18 -17 19 -1 4 36 -34 84 -85 175 -219 215
-318 47 -112 51 -144 8 -64 -92 171 -210 306 -365 416 -87 62 -242 143 -340
178 -30 11 -50 20 -43 20 6 1 58 -15 115 -35z m163 -403 c191 -122 355 -325
459 -569 20 -46 36 -87 36 -90 0 -4 -20 29 -44 74 -58 109 -132 216 -220 321
-72 87 -218 232 -286 286 -40 32 -11 20 55 -22z m473 -306 c41 -84 86 -204 78
-212 -2 -2 -10 13 -17 34 -6 21 -36 92 -66 158 -59 132 -56 145 5 20z m-1945
-72 c-7 -2 -19 -2 -25 0 -7 3 -2 5 12 5 14 0 19 -2 13 -5z m327 -73 c8 -5 11
-10 5 -10 -5 0 -17 5 -25 10 -8 5 -10 10 -5 10 6 0 17 -5 25 -10z m1505 -100
c9 -16 13 -30 11 -30 -3 0 -12 14 -21 30 -9 17 -13 30 -11 30 3 0 12 -13 21
-30z m-1715 -14 c0 -9 -30 -14 -35 -6 -4 6 3 10 14 10 12 0 21 -2 21 -4z
m1405 -160 c225 -76 411 -192 591 -371 132 -131 178 -201 189 -280 3 -27 8
-61 11 -75 3 -16 -12 1 -42 45 -51 76 -106 144 -199 246 -33 36 -11 16 49 -45
60 -60 122 -128 137 -149 16 -22 29 -37 29 -33 0 35 -144 220 -244 313 -132
124 -380 273 -601 362 -80 32 -31 24 80 -13z m-556 -47 c19 0 9 -6 -35 -23
-73 -27 -136 -63 -184 -106 -35 -31 -35 -31 -5 -17 32 16 105 38 105 32 0 -2
-26 -18 -57 -36 -78 -45 -140 -104 -169 -161 -27 -53 -25 -57 14 -29 62 43 73
40 22 -7 -30 -27 -63 -63 -73 -80 l-17 -31 52 -15 c68 -20 186 -78 143 -71
-16 3 -73 8 -125 11 -136 9 -271 -26 -323 -84 -18 -19 -18 -20 50 -1 37 11 72
19 78 19 14 -1 -71 -40 -116 -54 -32 -10 -24 -11 75 -13 68 -1 128 -7 156 -17
l45 -15 -75 0 c-41 -1 -104 -6 -140 -12 -64 -10 -208 -54 -222 -67 -4 -4 32
-5 80 -4 48 2 116 0 152 -3 l65 -8 -110 -18 c-114 -20 -207 -44 -335 -86 -89
-30 -107 -43 -60 -43 32 0 33 -1 14 -15 -10 -8 -39 -15 -64 -16 -40 -1 -42 -2
-15 -8 23 -6 11 -9 -50 -13 -44 -4 -98 -12 -120 -18 -47 -15 -101 -68 -110
-110 -8 -35 -11 -36 -32 -14 -11 11 -16 35 -17 77 -1 52 3 66 23 89 26 29 81
51 171 67 67 12 104 25 141 52 16 11 58 35 94 53 36 18 62 36 58 41 -5 4 -2 5
5 1 15 -9 85 32 77 45 -4 5 0 6 7 4 9 -4 23 14 41 50 60 122 161 192 292 202
l73 6 7 59 c4 33 19 84 34 113 20 39 25 57 17 65 -8 8 -6 9 6 5 18 -7 44 28
33 45 -4 6 -1 9 6 8 6 -2 14 3 17 11 3 9 0 11 -9 6 -8 -5 -12 -6 -9 -2 3 3 10
6 15 7 6 1 31 21 56 45 40 37 81 62 149 88 8 4 28 4 44 2 16 -3 40 -5 55 -6z
m-3869 -381 c-6 -7 -42 -58 -81 -113 -105 -150 -110 -157 -116 -151 -14 14
174 276 198 276 6 0 5 -5 -1 -12z m2736 -33 c-11 -8 -25 -15 -30 -15 -6 1 0 7
14 15 32 19 40 18 16 0z m2448 -286 c27 -53 28 -57 23 -172 -5 -149 -21 -171
-24 -34 -2 125 -22 190 -89 285 l-48 67 55 -46 c31 -27 66 -69 83 -100z
m-4179 -167 c35 -7 27 -9 -68 -20 -95 -11 -175 -30 -242 -58 -18 -7 -19 -6 -6
10 48 58 194 90 316 68z m78 -19 c-7 -2 -19 -2 -25 0 -7 3 -2 5 12 5 14 0 19
-2 13 -5z m-403 -22 c0 -5 -7 -12 -16 -15 -14 -5 -15 -4 -4 9 14 17 20 19 20
6z m157 -47 c-3 -3 -12 -4 -19 -1 -8 3 -5 6 6 6 11 1 17 -2 13 -5z m573 -44
c33 -18 148 -110 136 -110 -3 0 -45 26 -94 58 -48 33 -96 64 -107 71 -18 11
-18 11 5 5 14 -4 41 -15 60 -24z m753 -144 c93 -31 150 -67 176 -111 20 -35
23 -67 14 -184 -6 -85 -23 -79 -23 9 0 92 -45 140 -168 182 l-57 19 58 -6 c71
-7 122 -27 160 -63 16 -15 26 -20 22 -12 -9 24 -89 80 -142 100 -74 28 -181
42 -373 49 l-175 6 125 22 c161 29 275 25 383 -11z m-1440 -153 c79 -22 152
-88 195 -177 18 -36 32 -70 32 -75 0 -6 -22 -7 -53 -4 -68 7 -180 -23 -303
-81 -72 -35 -109 -60 -174 -122 -80 -76 -82 -78 -59 -36 41 75 104 137 176
175 95 49 226 89 300 91 35 0 63 3 63 6 -1 3 -21 21 -45 40 -56 44 -145 73
-200 65 l-40 -6 28 16 c15 9 51 18 78 20 28 2 53 5 56 8 9 9 -86 20 -119 13
-48 -9 -183 -74 -281 -133 -158 -95 -283 -150 -387 -168 l-35 -6 30 17 c17 10
78 37 137 60 75 29 133 61 195 106 48 35 108 76 133 91 25 15 41 27 36 27 -16
0 -98 -51 -186 -115 -92 -67 -166 -101 -199 -90 -29 9 -263 -23 -340 -47 -36
-11 -95 -33 -130 -49 -104 -47 -80 -27 31 27 56 26 127 54 158 60 l55 12 -49
1 c-93 2 -315 -91 -400 -168 l-29 -26 22 32 c34 49 109 110 183 147 37 19 65
36 63 38 -2 2 4 4 13 5 9 0 55 11 102 23 76 20 100 22 226 17 163 -7 165 -7
279 84 39 30 88 65 110 78 99 59 219 75 328 44z m1890 -94 c-25 -43 -165 -214
-224 -274 -40 -41 -47 -53 -37 -64 11 -11 9 -11 -9 -2 -19 9 -22 9 -17 -3 7
-18 -16 -33 -26 -16 -5 9 -9 9 -14 1 -5 -8 -17 -6 -39 6 -31 16 -32 16 -18 -3
8 -10 -2 -1 -21 20 -19 22 -39 36 -45 33 -12 -7 -36 16 -27 26 3 3 -5 11 -18
19 -24 13 -29 15 -63 17 -15 1 -16 4 -7 10 9 5 -7 17 -50 38 -91 45 -124 50
-48 8 36 -19 90 -58 120 -86 56 -51 43 -51 -34 1 -43 30 -73 39 -61 20 3 -6
-1 -7 -10 -3 -13 4 -14 8 -4 14 16 10 -38 33 -156 66 -71 19 -119 26 -225 28
-74 2 -121 1 -105 -3 25 -7 19 -9 -40 -15 -88 -10 -171 -28 -355 -79 -186 -51
-210 -60 -145 -52 28 3 58 8 69 11 13 4 16 1 11 -7 -6 -10 -2 -11 16 -7 13 3
47 8 74 11 42 5 46 5 25 -5 -14 -6 -56 -12 -95 -14 -86 -3 -93 -6 -35 -15 34
-5 19 -7 -62 -8 -101 -2 -142 -15 -80 -25 15 -3 6 -4 -20 -4 -27 1 -50 -2 -52
-8 -3 -5 -5 1 -5 14 -1 39 46 108 93 136 23 14 81 38 127 54 46 16 140 51 209
77 215 80 436 116 593 95 168 -23 265 -65 390 -173 59 -51 81 -45 26 8 -62 59
-54 66 33 24 45 -22 85 -46 90 -52 5 -9 8 -8 8 5 0 14 4 16 18 8 15 -8 25 -4
51 23 17 18 29 35 26 38 -3 3 3 11 12 19 16 13 17 12 4 -3 -16 -22 1 -24 19
-3 6 8 8 20 4 26 -4 8 -3 9 5 5 15 -10 43 13 34 27 -3 5 -2 8 3 4 5 -3 30 10
54 29 25 18 46 34 48 34 2 0 -5 -14 -15 -31z m2373 -114 c27 -101 29 -123 27
-275 -1 -102 -7 -196 -17 -245 l-15 -80 5 92 c6 115 -12 429 -31 546 -8 48
-15 90 -15 95 1 22 21 -36 46 -133z m-4516 31 c0 -7 -137 -116 -146 -116 -5 0
-27 -11 -49 -25 -50 -32 -16 -5 99 80 88 64 96 69 96 61z m2134 -21 c-9 -14
-19 -23 -22 -20 -5 4 26 45 35 45 2 0 -4 -11 -13 -25z m66 -19 c0 -2 -8 -10
-17 -17 -16 -13 -17 -12 -4 4 13 16 21 21 21 13z m-90 -33 c0 -11 -6 -14 -24
-9 -16 4 -28 0 -37 -12 -13 -15 -12 -16 4 -3 9 8 21 11 25 6 8 -8 -67 -77 -78
-70 -4 2 -29 -16 -56 -40 -94 -85 -68 -44 31 49 75 71 103 92 113 84 9 -8 11
-7 6 7 -5 13 -4 16 4 11 7 -4 12 -14 12 -23z m-2950 -7 c-8 -8 -33 -21 -55
-30 l-40 -16 25 19 c14 11 26 18 29 16 2 -3 13 2 25 10 26 19 35 19 16 1z
m1988 7 c-10 -2 -28 -2 -40 0 -13 2 -5 4 17 4 22 1 32 -1 23 -4z m171 -27 c41
-9 79 -20 85 -25 6 -4 23 -11 38 -15 16 -3 27 -10 25 -15 -1 -5 7 -17 18 -26
19 -16 19 -16 -5 -4 -14 6 -32 17 -40 24 -17 13 -160 60 -230 75 l-45 9 40 -3
c22 -2 73 -11 114 -20z m781 -31 c-13 -14 -27 -25 -32 -25 -9 0 42 49 51 50 3
0 -6 -11 -19 -25z m-1770 -36 c0 -6 -11 -20 -25 -32 -14 -12 -37 -49 -50 -82
-29 -72 -33 -42 -5 40 11 32 19 59 18 61 -2 1 -21 -4 -43 -11 -51 -18 -56 -12
-8 10 66 32 113 37 113 14z m-1320 -3 c0 -2 -8 -10 -17 -17 -16 -13 -17 -12
-4 4 13 16 21 21 21 13z m2631 -13 c13 -17 13 -17 -6 -3 -11 8 -22 16 -24 17
-2 2 0 3 6 3 6 0 17 -8 24 -17z m-1044 -9 c-3 -3 -12 -4 -19 -1 -8 3 -5 6 6 6
11 1 17 -2 13 -5z m326 -11 c-35 -2 -91 -2 -125 0 -35 2 -7 3 62 3 69 0 97 -1
63 -3z m627 -8 c14 -8 19 -14 10 -14 -8 0 -24 6 -34 14 -25 19 -9 19 24 0z
m-2580 2 c0 -2 -10 -12 -22 -23 l-23 -19 19 23 c18 21 26 27 26 19z m2991
-281 c-18 -22 -101 -54 -156 -60 -55 -6 -55 -6 70 29 28 8 60 21 70 30 25 18
31 19 16 1z m1395 -72 c47 -22 52 -35 12 -28 -25 4 -15 -4 37 -29 65 -32 220
-145 211 -154 -2 -3 -26 12 -54 31 -143 103 -275 117 -365 38 -25 -22 -39 -82
-28 -120 5 -18 7 -32 5 -32 -13 0 -34 74 -34 117 0 48 28 124 49 137 6 4 8 13
5 19 -4 7 -4 9 0 5 5 -4 25 2 44 13 45 23 73 24 118 3z m-718 -100 c29 -19
111 -57 181 -84 71 -26 146 -59 167 -73 22 -13 44 -26 50 -28 28 -10 167 -133
213 -189 52 -63 97 -138 87 -147 -3 -3 -17 9 -31 26 -32 37 -175 155 -175 143
0 -4 23 -30 50 -57 28 -27 50 -53 50 -57 0 -4 -29 21 -65 57 -36 36 -65 69
-65 74 0 5 -18 20 -40 35 -39 26 -40 26 -28 4 7 -13 27 -40 45 -60 17 -20 39
-52 49 -70 18 -37 17 -36 -51 47 -28 33 -61 69 -75 80 -13 11 -34 31 -45 43
-24 28 -109 75 -86 48 7 -9 19 -16 25 -16 6 0 22 -10 36 -21 21 -18 22 -20 5
-15 -16 4 -15 2 5 -12 39 -27 61 -52 55 -62 -3 -5 0 -12 6 -16 8 -5 9 -3 4 7
-10 17 33 -28 63 -66 31 -39 27 -50 -5 -17 -35 36 -218 181 -286 227 -29 19
-73 51 -99 71 -69 52 -59 36 13 -22 83 -67 107 -87 89 -78 -28 14 -135 102
-162 133 -18 22 -31 29 -44 24 -11 -4 -15 -2 -11 4 4 6 -3 19 -16 29 l-22 19
19 -22 c11 -13 15 -23 10 -23 -4 0 7 -14 26 -31 19 -17 7 -9 -27 17 -35 26
-63 51 -63 55 0 10 71 59 85 59 6 0 34 -16 63 -36z m1669 4 c-3 -7 -5 -2 -5
12 0 14 2 19 5 13 2 -7 2 -19 0 -25z m10 -70 c-3 -7 -5 -2 -5 12 0 14 2 19 5
13 2 -7 2 -19 0 -25z m50 -213 l0 -40 -5 35 c-5 33 -5 34 -12 10 -7 -22 -8
-21 -9 12 -1 20 2 45 6 55 6 16 8 15 14 -7 4 -14 7 -43 6 -65z m-3217 25 c0
-5 -5 -10 -11 -10 -5 0 -7 5 -4 10 3 6 8 10 11 10 2 0 4 -4 4 -10z m1719 -36
c30 -25 62 -55 70 -67 16 -24 14 -22 -91 71 -63 56 -49 54 21 -4z m-1769 11
c-7 -8 -17 -15 -23 -15 -6 0 -2 7 9 15 25 19 30 19 14 0z m-36 -36 c-30 -12
-37 -10 -24 5 6 8 19 12 27 9 14 -6 14 -8 -3 -14z m-44 -9 c0 -5 -2 -10 -4
-10 -3 0 -8 5 -11 10 -3 6 -1 10 4 10 6 0 11 -4 11 -10z m-30 -30 c-8 -5 -19
-10 -25 -10 -5 0 -3 5 5 10 8 5 20 10 25 10 6 0 3 -5 -5 -10z m-102 -32 c-2
-6 -15 -13 -29 -14 l-24 -4 25 15 c31 18 33 18 28 3z m-63 -38 c-3 -5 -11 -10
-16 -10 -6 0 -7 5 -4 10 3 6 11 10 16 10 6 0 7 -4 4 -10z m-85 -44 c0 -2 -7
-7 -16 -10 -8 -3 -12 -2 -9 4 6 10 25 14 25 6z m-50 -21 c0 -2 -10 -9 -22 -15
-22 -11 -22 -10 -4 4 21 17 26 19 26 11z m2608 -40 c-3 -3 -9 2 -12 12 -6 14
-5 15 5 6 7 -7 10 -15 7 -18z m-1764 -34 c3 -5 -21 -23 -53 -40 -37 -19 -62
-27 -66 -21 -3 5 0 10 9 10 8 0 16 4 18 8 3 8 68 50 80 51 4 1 9 -3 12 -8z
m339 -56 c-3 -9 -8 -14 -10 -11 -3 3 -2 9 2 15 9 16 15 13 8 -4z m-483 -30 c0
-2 -10 -10 -22 -16 -21 -11 -22 -11 -9 4 13 16 31 23 31 12z m-785 -75 c-3 -5
-12 -10 -18 -10 -7 0 -6 4 3 10 19 12 23 12 15 0z m-140 -50 c-3 -5 -12 -10
-18 -10 -7 0 -6 4 3 10 19 12 23 12 15 0z m785 -35 c0 -2 -10 -9 -22 -15 -22
-11 -22 -10 -4 4 21 17 26 19 26 11z m-933 -40 c0 -8 -1 -15 -2 -15 -2 0 -20
-7 -41 -16 -35 -15 -37 -15 -25 0 7 9 19 16 26 16 7 0 18 7 25 15 7 8 13 15
15 15 1 0 2 -7 2 -15z m-107 -50 c-14 -8 -29 -14 -35 -14 -5 0 1 6 15 14 14 8
30 14 35 14 6 0 -1 -6 -15 -14z m720 10 c0 -2 -10 -9 -22 -15 -22 -11 -22 -10
-4 4 21 17 26 19 26 11z m1210 -31 c0 -8 -19 -13 -24 -6 -3 5 1 9 9 9 8 0 15
-2 15 -3z m180 2 c0 -2 -8 -10 -17 -17 -16 -13 -17 -12 -4 4 13 16 21 21 21
13z m-220 -26 c0 -5 -2 -10 -4 -10 -3 0 -8 5 -11 10 -3 6 -1 10 4 10 6 0 11
-4 11 -10z m-25 -21 c-4 -5 -12 -9 -18 -8 -9 0 -8 2 1 6 6 2 9 10 6 15 -4 7
-2 8 5 4 6 -4 9 -12 6 -17z m185 -14 c0 -2 -10 -10 -22 -16 -21 -11 -22 -11
-9 4 13 16 31 23 31 12z"/>
<path d="M9040 8113 c-53 -43 -121 -115 -142 -148 -21 -35 -24 -79 -5 -72 6 2
12 9 12 14 0 6 4 15 9 20 5 5 6 3 2 -4 -4 -7 -3 -13 2 -13 15 0 59 53 92 110
18 30 41 70 52 88 24 39 22 40 -22 5z"/>
<path d="M7986 8013 c3 -10 14 -29 24 -43 18 -24 21 -24 46 -10 39 22 39 34
-1 53 -47 23 -75 22 -69 0z"/>
<path d="M7936 7996 c-3 -13 -19 -38 -35 -55 -32 -35 -26 -38 45 -20 43 11 54
22 35 34 -5 3 -12 19 -16 35 -8 36 -21 39 -29 6z"/>
<path d="M7003 7969 c14 -19 38 -63 53 -99 40 -94 94 -176 94 -143 0 18 -147
267 -160 271 -7 3 -1 -11 13 -29z"/>
<path d="M8638 7951 c-98 -68 -96 -62 -56 -118 19 -26 37 -56 41 -67 6 -16 12
-13 40 25 67 91 68 92 52 145 -8 26 -12 51 -9 56 7 11 6 11 -68 -41z"/>
<path d="M8089 7960 c-9 -10 -25 -23 -35 -29 -17 -10 -14 -15 36 -61 30 -28
68 -58 84 -66 27 -15 30 -15 53 9 l24 24 -67 71 c-37 40 -70 72 -73 71 -3 0
-13 -9 -22 -19z"/>
<path d="M8445 7919 c-11 -12 -47 -40 -79 -62 -53 -36 -57 -41 -42 -53 15 -10
24 -8 59 15 23 16 57 36 75 47 35 20 39 31 19 58 -12 16 -14 16 -32 -5z"/>
<path d="M7930 7882 c-41 -8 -81 -16 -88 -18 -18 -5 -55 -92 -47 -112 5 -13
10 -8 20 21 15 44 32 65 21 27 -20 -66 -20 -64 41 -105 32 -21 80 -56 106 -77
27 -21 52 -38 56 -38 4 0 24 29 45 65 21 36 51 77 66 92 l29 27 -32 19 c-18
11 -57 40 -87 66 l-55 47 -75 -14z"/>
<path d="M8794 7873 c-25 -27 -41 -69 -30 -80 3 -4 20 6 36 22 21 20 29 37 28
57 -1 15 -4 28 -6 28 -1 0 -14 -12 -28 -27z"/>
<path d="M8900 7835 c-12 -20 -20 -46 -18 -62 3 -28 4 -28 24 12 28 53 38 85
25 85 -5 0 -19 -16 -31 -35z"/>
<path d="M8495 7850 c-4 -6 -36 -29 -71 -51 -35 -23 -64 -43 -64 -45 0 -11
102 -150 115 -157 10 -5 19 1 29 20 8 16 33 46 55 67 45 44 45 39 -13 129 -32
48 -40 55 -51 37z"/>
<path d="M7383 7839 c10 -24 25 -82 36 -138 13 -64 41 -125 52 -114 4 4 11 49
14 99 l7 92 -28 17 c-16 10 -42 27 -58 38 -18 12 -27 15 -23 6z m82 -79 c11
-13 14 -20 6 -20 -18 0 -51 19 -51 30 0 17 26 11 45 -10z"/>
<path d="M8250 7785 c-16 -20 -3 -37 23 -29 30 9 32 11 17 29 -16 19 -24 19
-40 0z"/>
<path d="M8679 7754 c-11 -26 -17 -50 -13 -53 10 -11 54 49 54 75 0 38 -19 28
-41 -22z"/>
<path d="M8781 7745 c-25 -29 -29 -40 -21 -55 5 -10 10 -31 10 -46 0 -33 14
-22 24 19 5 22 4 27 -6 21 -7 -4 -3 3 10 15 13 13 22 34 22 51 0 17 -2 30 -4
30 -2 0 -18 -16 -35 -35z"/>
<path d="M7526 7652 c-4 -67 -3 -108 4 -117 5 -6 32 -26 59 -43 l50 -30 30 96
30 97 -22 17 c-12 9 -50 32 -83 51 l-61 34 -7 -105z"/>
<path d="M8164 7700 c-21 -22 -47 -54 -58 -72 -17 -29 -13 -27 35 18 30 28 65
56 77 63 12 7 20 16 17 22 -12 18 -34 9 -71 -31z"/>
<path d="M8320 7738 c0 -4 18 -26 105 -123 26 -30 26 -30 -2 10 -48 69 -103
129 -103 113z"/>
<path d="M7756 7707 c-5 -19 7 -36 27 -37 4 0 7 11 7 24 0 31 -26 42 -34 13z"/>
<path d="M8211 7649 c-35 -28 -74 -63 -87 -78 -24 -26 -31 -51 -16 -51 5 0 42
-29 83 -65 l74 -65 75 73 c41 39 76 73 79 74 13 8 -116 163 -135 163 -6 0 -39
-23 -73 -51z"/>
<path d="M7820 7668 c0 -22 8 -28 132 -99 15 -9 34 -22 42 -28 10 -9 16 -9 21
-1 4 6 -1 18 -11 26 -46 35 -173 124 -178 124 -3 0 -6 -10 -6 -22z"/>
<path d="M8574 7658 c-57 -62 -59 -72 -6 -29 49 41 63 61 44 61 -4 0 -22 -15
-38 -32z"/>
<path d="M8697 7669 c-16 -23 -18 -18 30 -136 7 -18 23 -16 23 1 0 17 -30 149
-35 154 -2 2 -10 -7 -18 -19z"/>
<path d="M7711 7563 c-26 -97 -29 -121 -16 -125 12 -4 65 148 62 176 -5 46
-26 23 -46 -51z"/>
<path d="M8588 7592 c-27 -26 -48 -55 -48 -65 0 -23 68 -157 79 -157 6 0 26
20 46 45 33 39 36 49 30 82 -3 21 -19 61 -33 90 l-27 51 -47 -46z"/>
<path d="M7780 7594 c-1 -11 -16 -55 -35 -99 l-34 -80 24 -20 c51 -43 116 -86
123 -81 4 2 34 43 67 91 l59 87 -24 19 c-28 21 -135 84 -162 94 -13 5 -18 2
-18 -11z"/>
<path d="M8500 7511 c0 -16 94 -173 98 -162 2 5 -15 44 -38 85 -40 73 -60 98
-60 77z"/>
<path d="M7370 7497 c0 -7 17 -36 38 -66 20 -29 42 -62 48 -72 22 -38 27 -33
21 20 -7 58 -21 80 -73 111 -23 13 -34 15 -34 7z"/>
<path d="M8057 7504 c-6 -6 22 -34 126 -124 26 -22 41 -30 48 -23 7 7 -16 33
-73 82 -85 72 -90 76 -101 65z"/>
<path d="M8375 7463 c-27 -24 -41 -40 -30 -34 30 16 91 69 85 74 -3 3 -27 -15
-55 -40z"/>
<path d="M8397 7421 c-32 -27 -63 -53 -69 -59 -8 -8 3 -29 38 -72 92 -116 83
-107 94 -88 6 10 31 29 55 44 25 14 45 33 45 42 0 21 -83 175 -96 178 -5 2
-35 -19 -67 -45z"/>
<path d="M7982 7398 c-23 -35 -52 -75 -64 -90 -12 -15 -20 -29 -17 -30 2 -2
32 -29 65 -61 34 -32 69 -60 80 -61 19 -4 64 30 64 47 0 5 -9 -1 -20 -14 -10
-13 -19 -19 -20 -13 0 11 44 56 51 52 2 -2 3 -1 1 1 -1 3 16 24 40 48 23 23
40 44 37 46 -2 2 -39 33 -82 70 -43 37 -81 67 -85 67 -4 0 -27 -28 -50 -62z"/>
<path d="M7524 7409 c3 -13 10 -51 16 -84 6 -33 18 -68 29 -78 18 -19 19 -17
30 48 7 37 11 68 9 69 -2 1 -22 17 -46 35 -41 32 -43 33 -38 10z"/>
<path d="M7700 7366 c26 -32 130 -108 130 -94 -1 11 -82 76 -130 103 -13 8
-13 7 0 -9z"/>
<path d="M7637 7244 c-18 -96 -17 -102 36 -153 l35 -33 28 53 c14 30 35 67 46
82 20 27 20 29 2 48 -24 27 -109 89 -121 89 -5 0 -17 -39 -26 -86z"/>
<path d="M8272 7317 c-7 -9 12 -35 65 -90 81 -85 109 -97 47 -20 -80 101 -102
122 -112 110z"/>
<path d="M8727 7303 c-4 -3 -7 -13 -7 -22 1 -13 3 -13 11 2 11 19 8 33 -4 20z"/>
<path d="M8662 7280 c0 -14 2 -19 5 -12 2 6 2 18 0 25 -3 6 -5 1 -5 -13z"/>
<path d="M8162 7200 c-35 -44 -62 -84 -60 -89 1 -6 35 -37 73 -71 l70 -60 15
22 c8 13 36 46 62 74 27 28 48 54 48 58 0 13 -122 146 -134 145 -6 0 -40 -36
-74 -79z"/>
<path d="M8712 7230 c0 -19 2 -27 5 -17 2 9 2 25 0 35 -3 9 -5 1 -5 -18z"/>
<path d="M7896 7208 c16 -17 42 -43 58 -57 15 -13 34 -31 41 -38 9 -8 16 -9
20 -3 7 12 -114 129 -134 130 -10 0 -4 -11 15 -32z"/>
<path d="M8510 7201 c-19 -19 -26 -29 -15 -24 22 12 61 52 54 56 -2 1 -20 -13
-39 -32z"/>
<path d="M8551 7181 c-17 -21 -31 -45 -31 -53 0 -17 69 -128 79 -128 4 0 18
21 30 46 l23 46 -23 61 c-13 33 -29 62 -35 64 -7 2 -26 -14 -43 -36z"/>
<path d="M7795 7109 c-33 -68 -37 -82 -25 -89 8 -5 39 -27 69 -49 l54 -40 37
58 c21 32 43 62 49 65 6 4 11 11 11 15 0 10 -135 121 -147 121 -5 0 -27 -36
-48 -81z"/>
<path d="M7565 7140 c9 -16 18 -30 21 -30 2 0 -2 14 -11 30 -9 17 -18 30 -21
30 -2 0 2 -13 11 -30z"/>
<path d="M8332 7044 c-54 -61 -79 -102 -54 -92 17 7 123 139 120 150 -2 6 -32
-20 -66 -58z"/>
<path d="M8465 7099 c-4 -6 2 -17 14 -25 11 -8 35 -35 52 -60 47 -69 45 -46
-4 29 -43 68 -51 75 -62 56z"/>
<path d="M8060 7071 c0 -9 127 -111 180 -143 l35 -22 -40 40 c-22 22 -65 61
-96 87 -54 45 -79 57 -79 38z"/>
<path d="M8376 7004 c-31 -37 -56 -73 -56 -78 1 -6 20 -23 43 -37 82 -52 85
-52 120 -30 18 11 38 29 45 41 11 19 10 27 -13 65 -14 24 -38 58 -54 76 l-29
31 -56 -68z"/>
<path d="M7979 6973 c-30 -46 -40 -68 -31 -71 7 -2 39 -27 70 -54 86 -75 85
-75 112 -17 13 27 30 55 37 61 7 6 13 14 13 18 0 7 -120 109 -146 123 -7 4
-29 -20 -55 -60z"/>
<path d="M7621 6973 c1 -41 16 -101 18 -70 1 9 6 17 11 17 13 0 13 33 -2 65
-16 36 -28 31 -27 -12z"/>
<path d="M7741 6993 c1 -13 122 -104 128 -97 3 3 -12 22 -34 41 -43 37 -95 68
-94 56z"/>
<path d="M7700 6920 c0 -11 -5 -39 -12 -63 -6 -24 -8 -52 -4 -63 6 -16 13 -9
38 40 39 77 46 66 9 -15 -16 -35 -27 -68 -24 -75 2 -6 17 -21 33 -32 l29 -22
40 76 c23 42 38 80 35 86 -8 12 -124 88 -136 88 -4 0 -8 -9 -8 -20z"/>
<path d="M8686 6923 c-17 -17 14 -123 36 -123 10 0 10 9 -3 69 -11 50 -20 66
-33 54z"/>
<path d="M8290 6894 c0 -9 32 -33 44 -34 5 0 1 9 -9 20 -18 20 -35 26 -35 14z"/>
<path d="M8163 6825 c-43 -65 -44 -100 -1 -45 13 17 33 43 46 59 25 32 28 51
10 51 -7 0 -32 -29 -55 -65z"/>
<path d="M7920 6867 c0 -8 26 -34 58 -58 31 -23 72 -56 89 -73 38 -34 56 -30
20 5 -32 32 -139 123 -154 133 -8 4 -13 2 -13 -7z"/>
<path d="M8547 6857 c-9 -14 -26 -29 -38 -32 -13 -4 -17 -11 -12 -16 12 -12
54 3 72 24 8 11 9 22 3 32 -8 14 -11 13 -25 -8z"/>
<path d="M8243 6827 c-33 -37 -63 -84 -62 -99 1 -20 132 -125 137 -109 2 7 24
43 49 78 24 36 41 69 36 73 -4 5 -38 24 -74 44 l-66 36 -20 -23z"/>
<path d="M7847 6763 c-49 -83 -59 -103 -48 -103 8 0 101 141 101 154 0 21 -23
-2 -53 -51z"/>
<path d="M8569 6784 c-23 -25 -23 -26 -4 -36 10 -6 34 -27 51 -47 28 -30 34
-33 40 -18 8 22 0 54 -26 95 -24 39 -30 39 -61 6z"/>
<path d="M7887 6713 l-46 -78 47 -48 c75 -77 72 -77 136 14 31 45 56 82 54 83
-2 1 -23 18 -48 38 -25 19 -57 43 -71 52 l-27 17 -45 -78z"/>
<path d="M8510 6742 c0 -4 26 -34 57 -67 70 -73 85 -56 17 19 -45 49 -74 68
-74 48z"/>
<path d="M8397 6703 c-39 -62 -58 -104 -54 -116 5 -15 29 23 61 96 30 66 27
73 -7 20z"/>
<path d="M8441 6672 c-13 -26 -30 -61 -37 -79 l-14 -31 54 -31 c30 -17 61 -40
70 -52 l15 -22 11 28 c6 15 19 39 30 53 11 13 20 32 20 41 0 12 -115 143 -123
141 -1 -1 -13 -22 -26 -48z"/>
<path d="M8150 6675 c0 -8 6 -15 13 -15 6 0 38 -18 71 -41 82 -57 82 -41 -1
20 -74 55 -83 59 -83 36z"/>
<path d="M7601 6659 c-19 -51 -25 -102 -11 -97 18 6 41 88 30 107 -7 13 -10
11 -19 -10z"/>
<path d="M7726 6647 c3 -10 9 -15 12 -12 3 3 0 11 -7 18 -10 9 -11 8 -5 -6z"/>
<path d="M8057 6574 c-59 -79 -63 -90 -40 -98 13 -5 25 1 41 21 13 15 41 49
62 74 29 35 36 49 27 58 -22 22 -43 9 -90 -55z"/>
<path d="M8720 6621 c0 -5 7 -15 17 -22 15 -13 15 -12 4 9 -12 23 -21 28 -21
13z"/>
<path d="M7670 6601 c0 -5 -16 -35 -35 -67 -19 -32 -35 -61 -35 -66 0 -18 28
-6 60 27 26 27 31 38 22 47 -17 17 -15 33 3 18 12 -10 16 -9 21 4 3 9 1 23 -6
31 -14 17 -30 20 -30 6z"/>
<path d="M7810 6582 c0 -19 90 -112 109 -112 19 0 12 12 -41 69 -61 65 -68 69
-68 43z"/>
<path d="M8130 6528 c-25 -40 -45 -76 -45 -80 0 -6 121 -88 130 -88 3 0 5 9 5
20 0 10 6 23 13 27 11 7 53 61 71 90 4 8 -15 29 -55 58 -34 25 -64 45 -68 45
-3 0 -27 -33 -51 -72z"/>
<path d="M8676 6591 c-5 -8 4 -25 25 -47 40 -41 60 -45 27 -5 -12 15 -28 37
-34 47 -8 13 -12 15 -18 5z"/>
<path d="M7760 6531 c0 -5 36 -46 80 -89 54 -54 83 -75 90 -68 17 17 11 26
-15 26 -15 0 -25 6 -25 14 0 8 -25 39 -56 68 -59 56 -74 66 -74 49z"/>
<path d="M8625 6530 c-3 -5 -1 -10 5 -10 7 0 1 -18 -13 -42 -77 -132 -76 -128
-27 -148 43 -18 76 -1 100 53 29 63 26 90 -15 126 -40 34 -41 35 -50 21z"/>
<path d="M8382 6511 c6 -17 115 -110 122 -104 15 15 3 35 -45 73 -47 37 -85
53 -77 31z"/>
<path d="M7697 6460 c-20 -24 -37 -48 -37 -53 0 -17 41 -77 53 -77 23 0 117
44 117 54 0 6 -22 35 -48 65 l-48 54 -37 -43z"/>
<path d="M7965 6440 c3 -5 11 -10 16 -10 6 0 7 5 4 10 -3 6 -11 10 -16 10 -6
0 -7 -4 -4 -10z"/>
<path d="M7950 6410 c0 -5 5 -10 10 -10 6 0 10 5 10 10 0 6 -4 10 -10 10 -5 0
-10 -4 -10 -10z"/>
<path d="M8002 6365 c-24 -18 -48 -36 -55 -38 -17 -6 30 -55 76 -78 38 -20 38
-20 70 0 35 23 87 67 87 75 0 11 -100 76 -116 75 -11 0 -38 -15 -62 -34z m69
-52 l34 -37 -42 33 c-24 18 -43 35 -43 37 0 13 20 0 51 -33z m66 7 c-2 -11 -9
-26 -17 -33 -10 -9 -11 -9 -6 1 4 6 2 12 -3 12 -6 0 -3 9 7 19 22 25 22 25 19
1z"/>
<path d="M7821 6314 c-19 -13 -42 -24 -52 -24 -11 0 -19 -4 -19 -10 0 -5 4
-10 8 -10 5 0 32 -34 61 -75 32 -47 59 -75 70 -75 18 0 91 71 91 89 0 5 -25
31 -55 56 -30 26 -55 54 -55 61 0 19 -9 17 -49 -12z"/>
<path d="M6940 5504 c0 -6 7 -19 16 -30 14 -18 14 -18 3 6 -14 31 -19 36 -19
24z"/>
<path d="M4962 6250 c-23 -17 -42 -33 -42 -36 0 -4 56 34 85 58 23 20 -6 5
-43 -22z"/>
<path d="M4867 6168 c-18 -18 -21 -23 -7 -10 27 23 46 30 35 12 -3 -5 -2 -10
4 -10 5 0 9 9 8 20 -1 11 -3 20 -4 20 -2 0 -18 -15 -36 -32z"/>
<path d="M4804 6098 l-19 -23 23 19 c21 18 27 26 19 26 -2 0 -12 -10 -23 -22z"/>
<path d="M2391 4523 c-37 -4 -54 -13 -101 -56 -31 -29 -105 -80 -166 -114
-115 -66 -173 -107 -163 -117 3 -3 41 18 85 47 43 29 114 66 156 81 42 15 113
52 157 82 45 30 85 54 89 54 5 0 17 7 28 15 18 14 17 14 -11 13 -16 -1 -50 -3
-74 -5z"/>
<path d="M3483 3043 c9 -2 23 -2 30 0 6 3 -1 5 -18 5 -16 0 -22 -2 -12 -5z"/>
<path d="M2900 2860 c0 -5 5 -10 10 -10 6 0 10 5 10 10 0 6 -4 10 -10 10 -5 0
-10 -4 -10 -10z"/>
<path d="M4580 2980 c-8 -5 -10 -10 -5 -10 6 0 17 5 25 10 8 5 11 10 5 10 -5
0 -17 -5 -25 -10z"/>
</g>
</svg>
