<?xml version="1.0" standalone="no"?>
<!DOCTYPE svg PUBLIC "-//W3C//DTD SVG 20010904//EN"
 "http://www.w3.org/TR/2001/REC-SVG-20010904/DTD/svg10.dtd">
<svg version="1.0" xmlns="http://www.w3.org/2000/svg"
 width="1024.000000pt" height="1024.000000pt" viewBox="0 0 1024.000000 1024.000000"
 preserveAspectRatio="xMidYMid meet">

<g transform="translate(0.000000,1024.000000) scale(0.100000,-0.100000)"
fill="#000000" stroke="none">
<path d="M8940 9435 l0 -805 -26 0 c-15 0 -72 7 -128 15 -55 8 -177 21 -271
30 -93 8 -186 17 -205 20 -286 40 -1102 31 -1389 -16 -129 -21 -357 -71 -436
-96 -154 -49 -315 -150 -315 -198 0 -8 -4 -15 -9 -15 -28 0 -4 -115 29 -135 5
-3 21 -29 35 -58 15 -28 51 -85 82 -127 30 -41 107 -158 172 -260 149 -236
184 -288 262 -380 92 -110 233 -331 305 -480 12 -25 44 -112 73 -195 85 -250
105 -404 98 -753 -2 -133 -1 -240 3 -239 4 1 20 -11 34 -27 l27 -28 25 23 c21
20 28 21 44 11 34 -21 68 -15 87 16 21 34 54 72 63 72 4 0 24 -24 46 -54 21
-30 46 -59 55 -65 25 -15 104 39 137 94 26 43 42 56 42 34 0 -15 69 -98 92
-110 27 -15 51 3 96 71 34 50 42 57 47 41 21 -69 86 -93 123 -46 24 30 27 30
59 5 32 -25 68 -26 90 -1 16 19 17 19 44 -10 58 -62 76 -1 42 143 -15 62 -17
116 -15 353 l2 280 35 135 c20 74 49 187 66 250 20 79 52 161 99 260 91 190
107 256 119 489 5 102 8 200 5 216 -2 17 -1 24 2 18 3 -7 33 -27 67 -44 61
-30 149 -92 214 -150 l33 -28 0 -821 0 -820 354 0 c195 0 357 4 360 9 3 5 21
69 40 142 71 276 109 426 121 479 7 30 29 111 49 180 21 69 52 186 71 260 19
74 39 150 44 169 6 19 8 37 6 42 -3 4 -1 10 4 13 5 4 12 25 16 49 4 23 11 47
16 53 5 6 43 22 84 35 l76 24 -5 640 c-10 1322 -11 1547 -3 1818 l9 277 -651
0 -651 0 0 -805z m-1270 -864 c0 -8 19 -99 41 -202 23 -103 39 -194 36 -202
-8 -22 -70 -29 -216 -25 l-124 3 -33 90 c-19 50 -42 110 -50 135 -11 28 -36
64 -69 95 -64 61 -77 92 -42 100 21 6 332 20 425 20 21 0 32 -5 32 -14z m490
-12 c47 -6 87 -13 89 -15 2 -2 -4 -13 -15 -25 -17 -19 -19 -37 -19 -164 0 -79
-3 -146 -6 -150 -8 -8 -191 -34 -241 -35 l-37 0 -15 73 c-8 39 -20 99 -27 132
-14 75 -28 102 -73 142 -20 17 -36 39 -36 49 0 16 12 17 148 11 81 -4 185 -12
232 -18z m1157 -61 c-2 -13 -4 -3 -4 22 0 25 2 35 4 23 2 -13 2 -33 0 -45z
m-2224 15 c78 -184 137 -335 137 -353 0 -21 -3 -22 -52 -16 -29 3 -104 8 -166
12 l-112 7 -33 61 c-35 67 -95 132 -143 157 -28 15 -32 23 -35 63 -3 35 0 47
11 50 13 4 70 14 245 45 28 5 68 9 91 10 38 1 42 -2 57 -36z m1345 -34 c23
-10 42 -16 42 -13 0 3 18 -9 41 -26 28 -23 38 -37 33 -49 -3 -9 -15 -42 -26
-73 l-20 -57 -97 -21 c-53 -12 -109 -26 -125 -31 l-29 -9 7 68 c9 93 24 142
52 175 13 16 24 37 24 48 0 16 5 18 28 13 15 -4 46 -15 70 -25z m-642 3 c22
-14 36 -56 60 -170 31 -151 32 -148 -13 -155 -20 -4 -39 -5 -41 -2 -7 7 -52
258 -52 291 0 42 17 56 46 36z m-1206 -69 c8 -27 31 -84 52 -127 21 -44 36
-81 33 -84 -8 -8 -267 66 -357 103 -34 14 -27 34 20 63 55 33 173 80 233 91 4
0 12 -20 19 -46z m651 16 c18 -25 121 -271 116 -275 -1 -1 -16 -4 -34 -7 -30
-6 -32 -4 -49 41 -10 26 -35 91 -56 145 -21 53 -38 104 -38 112 0 26 38 16 61
-16z m1408 -65 c11 -40 5 -64 -16 -64 -8 0 -27 -7 -43 -15 -33 -17 -35 -13
-18 36 15 44 47 91 58 84 5 -3 14 -22 19 -41z m124 10 c11 -11 -5 -35 -33 -49
-32 -16 -40 -8 -32 32 3 17 11 23 31 23 15 0 30 -3 34 -6z m-2008 -76 c19 -20
43 -55 55 -78 l20 -40 -35 0 c-20 0 -44 4 -54 10 -18 9 -64 101 -77 154 l-7
29 32 -19 c18 -10 48 -36 66 -56z m-307 -281 c87 -157 147 -243 246 -347 110
-117 181 -219 195 -281 6 -25 13 -53 17 -62 14 -36 -13 -13 -49 43 -21 32 -79
105 -129 162 -124 141 -366 509 -382 581 -7 28 -6 28 21 13 19 -9 46 -46 81
-109z m154 28 c14 0 24 -4 20 -9 -3 -5 5 -7 17 -3 18 4 26 -3 53 -56 17 -34
45 -84 63 -112 36 -56 158 -286 175 -329 10 -26 7 -25 -39 16 -28 23 -85 88
-127 143 -42 55 -110 141 -150 190 -97 120 -122 183 -66 168 15 -4 39 -8 54
-8z m154 -81 c19 -42 33 -78 31 -81 -4 -3 -77 140 -77 151 0 20 16 -4 46 -70z
m1506 1 c18 -45 19 -58 9 -140 -7 -49 -15 -157 -20 -240 -6 -122 -12 -160 -31
-203 -19 -45 -26 -52 -44 -46 -11 3 -28 12 -36 20 -12 12 -10 18 20 43 l35 29
0 268 c0 269 7 332 36 322 7 -2 20 -26 31 -53z m153 31 l55 -25 0 -50 c0 -117
-26 -363 -46 -433 -10 -34 -22 -17 -33 45 -16 95 -51 391 -51 435 0 34 6 52
16 52 2 0 28 -11 59 -24z m-276 -48 c-5 -35 -23 -121 -42 -193 l-34 -130 -17
40 c-22 51 -89 316 -82 323 5 5 102 18 157 21 l25 1 -7 -62z m-1218 15 c5 -14
27 -51 49 -82 48 -68 138 -267 147 -325 l6 -41 -49 54 c-99 109 -214 267 -234
320 -12 29 -27 63 -35 75 -8 11 -15 23 -15 26 0 3 27 3 61 2 54 -3 61 -7 70
-29z m325 -3 c16 -6 25 -23 34 -62 7 -29 26 -88 42 -130 31 -81 68 -208 68
-232 0 -20 -197 184 -309 319 -50 61 -91 112 -91 115 0 8 232 -1 256 -10z
m511 -17 c-3 -10 -5 -4 -5 12 0 17 2 24 5 18 2 -7 2 -21 0 -30z m162 0 c6 -21
17 -67 25 -103 9 -36 29 -110 46 -164 16 -54 30 -105 30 -112 0 -10 -89 -156
-105 -172 -2 -2 -10 9 -18 25 -22 42 -87 431 -87 519 0 31 3 33 38 37 20 2 42
4 49 5 7 1 17 -15 22 -35z m-505 8 c4 -5 13 -47 21 -93 29 -156 82 -279 155
-356 22 -24 40 -52 40 -62 0 -10 -16 -36 -36 -57 l-36 -38 -20 25 c-33 41 -85
151 -108 230 -12 41 -37 122 -55 180 -18 58 -36 122 -39 143 l-7 37 40 0 c22
0 42 -4 45 -9z m246 -3 c27 -11 29 -17 35 -84 7 -70 -1 -180 -15 -218 -5 -15
-26 9 -103 122 -53 78 -99 152 -102 165 -6 24 -6 24 75 26 48 1 93 -3 110 -11z
m925 -18 c16 0 17 -7 11 -62 -12 -112 -26 -165 -59 -214 -29 -45 -32 -47 -35
-25 -2 13 1 66 7 117 6 51 11 117 11 147 0 62 7 73 30 52 9 -8 25 -15 35 -15z
m-791 -256 c31 -169 32 -213 6 -262 -36 -68 -36 -69 -60 -41 -53 62 -53 66
-20 229 16 83 30 169 30 192 0 73 16 29 44 -118z m-215 18 c77 -117 91 -151
72 -180 -9 -15 -52 34 -89 103 -31 57 -86 223 -68 204 2 -2 40 -59 85 -127z
m746 -16 c9 -70 20 -150 25 -178 16 -83 13 -95 -36 -148 -45 -49 -74 -63 -74
-37 0 6 11 47 25 89 20 63 26 107 31 243 4 91 9 164 10 162 2 -2 10 -60 19
-131z m-1094 -62 c24 -28 56 -59 71 -68 34 -21 68 -76 68 -110 0 -30 -21 -76
-43 -95 -12 -9 -19 -6 -38 16 -13 16 -39 39 -58 52 -36 26 -61 74 -61 117 0
15 -18 72 -40 126 -22 55 -40 104 -40 110 0 9 54 -47 141 -148z m-309 69 c25
-38 85 -112 133 -166 l87 -98 -17 -45 -17 -46 -29 28 c-16 15 -47 66 -69 113
-23 47 -64 130 -91 184 -27 53 -48 97 -46 97 2 0 25 -30 49 -67z m1234 -249
c-14 -53 -46 -18 -66 71 -8 36 -6 53 9 92 10 26 24 73 32 103 l14 55 8 -148
c5 -82 6 -160 3 -173z m394 80 c-15 -55 -36 -98 -73 -151 l-52 -75 -3 36 c-3
28 12 65 70 178 59 116 74 138 76 116 2 -15 -6 -62 -18 -104z m39 -122 c-31
-93 -36 -60 -8 45 19 70 25 80 27 54 2 -18 -7 -62 -19 -99z m-566 49 c-10 -16
-31 -47 -46 -71 -16 -23 -26 -44 -24 -46 3 -3 28 17 56 45 l51 50 0 -44 c0
-26 10 -63 24 -92 29 -57 32 -71 23 -99 -9 -26 -58 -55 -64 -37 -2 7 -18 29
-34 49 -16 21 -27 44 -25 51 3 7 0 12 -5 10 -6 -1 -20 15 -31 36 -23 42 -20
49 51 135 41 49 51 54 24 13z m-1086 -8 c9 -16 32 -45 51 -67 46 -52 66 -100
52 -126 -6 -11 -14 -20 -19 -20 -14 0 -60 95 -67 139 -4 24 -18 56 -31 72 -14
16 -20 29 -14 29 6 0 18 -12 28 -27z m917 -40 c10 -62 7 -93 -9 -99 -21 -8
-19 -24 3 -24 14 0 15 -2 2 -10 -25 -16 -43 -12 -37 9 3 12 -1 22 -9 25 -8 3
-14 11 -14 18 0 18 43 118 51 118 4 0 9 -17 13 -37z m-374 -64 c7 -12 -1 -25
-31 -55 l-39 -38 -26 26 -27 26 33 58 33 57 24 -29 c13 -16 28 -36 33 -45z
m-230 -70 c-19 -16 -40 -29 -47 -29 -13 0 -63 67 -63 85 0 5 10 26 21 45 l21
34 51 -53 51 -54 -34 -28z m470 52 c0 -16 -53 -61 -72 -61 -29 0 -51 27 -44
54 3 13 21 33 38 45 l33 21 23 -26 c12 -14 22 -29 22 -33z m470 5 c0 -3 -4
-16 -10 -30 -13 -35 -30 -33 -30 4 0 23 4 30 20 30 11 0 20 -2 20 -4z m156
-43 c-10 -10 -19 5 -10 18 6 11 8 11 12 0 2 -7 1 -15 -2 -18z m-814 -11 c3
-10 -7 -39 -22 -65 l-27 -47 -29 31 -29 30 45 39 c47 40 55 42 62 12z m278
-26 c0 -21 -40 -66 -59 -66 -9 0 -22 5 -29 12 -7 7 -21 13 -32 13 -28 0 -22
15 23 52 37 31 40 32 68 18 16 -9 29 -22 29 -29z m-528 -26 c-9 -33 -20 -60
-24 -60 -5 0 -14 11 -20 25 -10 23 -8 29 22 60 19 19 35 35 36 35 1 0 -5 -27
-14 -60z m1036 48 c-2 -6 -10 -14 -16 -16 -7 -2 -10 2 -6 12 7 18 28 22 22 4z
m126 -67 c-10 -39 -22 -71 -27 -71 -5 0 -7 27 -5 60 3 44 9 64 24 74 10 8 21
13 22 11 2 -2 -4 -35 -14 -74z m-181 1 c-11 -15 -28 -42 -37 -61 -14 -26 -20
-31 -27 -20 -5 8 -9 26 -9 41 0 21 9 32 42 52 50 30 59 26 31 -12z m-1131 11
c17 -19 38 -85 38 -118 0 -16 -7 -12 -41 20 -54 53 -62 70 -47 95 16 25 30 25
50 3z m279 -65 l39 -46 -27 -46 c-16 -25 -31 -44 -35 -43 -3 1 -24 26 -46 55
-41 55 -41 59 -20 130 10 33 10 33 30 15 11 -10 38 -39 59 -65z m956 -64 c-7
-114 -26 -145 -27 -43 0 42 3 98 7 124 6 44 7 46 16 24 5 -13 7 -61 4 -105z
m-686 36 c14 0 11 -16 -17 -76 l-26 -57 -55 55 -56 56 23 50 23 51 50 -39 c27
-22 54 -40 58 -40z m227 32 c35 -51 39 -73 19 -94 -7 -7 -16 -21 -20 -32 -9
-24 -21 -14 -72 60 l-39 56 35 29 c18 16 36 29 39 29 3 0 20 -21 38 -48z m392
1 c-11 -37 -50 -78 -50 -52 0 15 51 101 57 95 2 -2 -1 -22 -7 -43z m-1063 -61
c3 -13 1 -28 -5 -34 -7 -7 -12 1 -17 24 -3 18 -9 42 -11 53 l-5 20 16 -20 c9
-11 18 -30 22 -43z m909 13 c7 -19 14 -43 14 -54 0 -19 -58 -111 -69 -111 -7
0 -51 111 -51 128 0 10 75 72 87 72 2 0 11 -16 19 -35z m1101 -27 c-3 -7 -5
-2 -5 12 0 14 2 19 5 13 2 -7 2 -19 0 -25z m-955 -126 c-10 -69 -17 -91 -26
-81 -2 2 -7 41 -10 87 -6 70 -5 88 10 110 l18 27 9 -34 c5 -21 5 -64 -1 -109z
m-992 93 c0 -13 -4 -27 -10 -30 -6 -4 -10 8 -10 30 0 22 4 34 10 30 6 -3 10
-17 10 -30z m539 -45 c0 -9 -12 0 -29 20 -16 19 -30 42 -30 50 0 8 13 -1 30
-20 16 -19 29 -42 29 -50z m-686 -2 c15 -20 27 -40 27 -43 0 -10 -46 47 -60
75 -15 29 -4 19 33 -32z m395 1 c26 -29 48 -55 50 -60 2 -4 -14 -26 -34 -49
-42 -47 -31 -51 -98 34 l-29 36 24 45 c13 25 28 45 32 45 5 0 30 -23 55 -51z
m254 -58 c17 -26 16 -28 -14 -75 -28 -42 -33 -45 -41 -29 -6 10 -23 34 -39 54
-34 44 -35 59 -6 110 l22 39 30 -37 c17 -20 39 -48 48 -62z m-668 5 c29 -54
37 -127 11 -92 -8 10 -26 53 -40 94 -27 83 -15 82 29 -2z m210 28 c11 -27 7
-37 -9 -24 -16 14 -20 40 -6 40 5 0 12 -7 15 -16z m679 -15 c20 -36 21 -51 5
-67 -17 -17 -52 43 -44 74 8 32 17 30 39 -7z m143 -17 c-14 -27 -43 -48 -53
-39 -4 4 60 74 65 71 2 -1 -3 -16 -12 -32z m-857 -26 c20 -21 21 -27 11 -47
-13 -23 -13 -22 -31 12 -32 59 -21 79 20 35z m649 -73 c-25 -27 -39 -19 -40
24 -2 51 12 60 38 27 l23 -28 -21 -23z m261 -28 c0 -16 -9 -50 -20 -75 -21
-44 -21 -45 -31 -20 -6 14 -16 48 -23 75 -11 49 -11 51 19 87 l31 37 12 -37
c6 -20 12 -50 12 -67z m147 87 c-3 -5 -12 -53 -21 -108 -19 -119 -35 -144 -35
-56 0 57 19 129 43 160 10 13 21 17 13 4z m-686 -81 c46 -77 46 -81 4 -161
-22 -42 -24 -43 -24 -16 0 18 -13 43 -39 72 -52 60 -55 75 -19 129 16 25 31
45 33 45 1 0 22 -31 45 -69z m-210 -71 c0 -7 -5 -28 -12 -45 l-11 -32 -49 64
c-46 60 -49 67 -38 93 l12 28 49 -47 c27 -26 49 -53 49 -61z m600 106 c0 -3
-4 -8 -10 -11 -5 -3 -10 -1 -10 4 0 6 5 11 10 11 6 0 10 -2 10 -4z m-590 -38
c0 -6 -7 -5 -15 2 -8 7 -15 17 -15 22 0 6 7 5 15 -2 8 -7 15 -17 15 -22z
m-224 -13 c16 -24 12 -65 -6 -65 -16 0 -32 41 -26 66 8 30 12 30 32 -1z m636
-48 c11 -42 10 -49 -6 -65 -16 -16 -19 -15 -47 16 -16 18 -29 36 -29 41 0 17
53 72 61 64 4 -4 14 -29 21 -56z m102 25 c-7 -25 -29 -29 -38 -7 -6 17 23 50
35 38 5 -5 6 -18 3 -31z m142 -118 c4 -20 2 -34 -4 -34 -14 0 -44 86 -49 139
l-4 46 25 -59 c14 -32 28 -73 32 -92z m-552 51 c9 -14 15 -25 13 -25 -2 0 -14
11 -27 25 -13 14 -19 25 -13 25 6 0 18 -11 27 -25z m469 -50 c29 -68 34 -100
17 -110 -15 -9 -60 94 -60 138 0 20 3 37 8 37 4 0 19 -29 35 -65z m-123 18 c0
-16 -9 -39 -19 -52 -18 -23 -18 -23 -23 -3 -5 18 24 82 37 82 3 0 5 -12 5 -27z
m-110 -67 c0 -22 -63 -127 -75 -123 -5 2 -18 19 -28 39 l-18 36 37 67 36 66
24 -35 c13 -19 24 -42 24 -50z m436 -21 c-8 -39 -24 -54 -38 -34 -11 17 -5 73
12 114 l13 30 10 -38 c5 -21 6 -53 3 -72z m-880 40 c19 -17 22 -26 16 -53 l-7
-34 -31 44 c-17 23 -34 55 -38 71 -7 30 -8 31 60 -28z m185 13 c8 -16 5 -28
-17 -59 -15 -21 -28 -39 -30 -39 -2 0 -11 14 -19 30 -15 29 -15 33 6 70 24 42
37 41 60 -2z m438 -86 c37 -58 38 -69 10 -117 l-22 -36 -24 43 c-13 23 -27 55
-30 70 -6 28 13 88 27 88 4 0 22 -22 39 -48z m-389 3 c7 -18 4 -35 -9 -66
l-19 -42 -16 31 c-16 30 -15 33 6 67 13 19 24 35 26 35 1 0 7 -11 12 -25z
m-271 -85 l0 -35 -18 40 c-10 22 -21 51 -25 65 -7 24 -6 24 18 -5 18 -20 26
-41 25 -65z m141 8 c0 -10 -4 -18 -10 -18 -5 0 -10 9 -10 19 0 11 -5 21 -11
23 -6 2 -7 11 -3 22 6 17 8 16 20 -5 7 -13 13 -32 14 -41z m339 6 c-31 -33
-34 -24 -7 22 18 30 24 35 26 20 2 -10 -6 -29 -19 -42z m391 -2 c0 -28 -3 -33
-10 -22 -13 20 -13 73 0 65 6 -3 10 -23 10 -43z m-100 13 c0 -8 -4 -15 -10
-15 -5 0 -10 7 -10 15 0 8 5 15 10 15 6 0 10 -7 10 -15z m-660 -58 c0 -10 -4
-15 -10 -12 -5 3 -10 18 -10 33 0 21 2 24 10 12 5 -8 10 -23 10 -33z m254 -17
c13 -32 13 -39 -1 -68 -19 -39 -23 -39 -53 -7 -30 31 -32 85 -5 115 22 25 36
15 59 -40z m216 -15 l33 -65 -30 -42 c-17 -23 -35 -44 -40 -45 -13 -5 -53 87
-53 120 0 13 9 36 20 50 11 14 20 33 20 42 0 27 15 9 50 -60z m340 -12 c-11
-17 -11 -17 -6 0 3 10 7 35 8 55 l1 37 4 -37 c2 -21 -1 -46 -7 -55z m-720 25
c0 -5 -9 -27 -21 -50 -16 -31 -23 -38 -30 -27 -13 21 -11 44 8 84 16 33 18 35
30 19 7 -10 13 -22 13 -26z m618 -56 l-3 -37 -18 54 c-14 43 -15 57 -5 69 11
12 14 9 21 -18 4 -18 7 -48 5 -68z m-881 30 c3 -22 0 -48 -6 -58 -9 -17 -10
-15 -11 11 0 17 -3 48 -6 70 -5 31 -4 37 5 29 7 -6 15 -30 18 -52z m123 -18
c0 -9 -5 -25 -11 -36 -16 -30 -30 -3 -17 33 10 29 28 31 28 3z m657 -6 c-3 -8
-6 -5 -6 6 -1 11 2 17 5 13 3 -3 4 -12 1 -19z m-432 -68 l28 -41 -26 -27 c-15
-16 -27 -33 -27 -40 0 -22 -18 -12 -39 22 -12 18 -21 41 -21 51 0 22 39 87 49
81 4 -3 20 -23 36 -46z m505 -61 c0 -32 -4 -60 -9 -63 -4 -3 -21 18 -36 46
l-28 51 19 35 18 34 18 -22 c13 -16 18 -39 18 -81z m-676 46 c4 -16 0 -40 -10
-61 -15 -31 -19 -33 -27 -19 -14 25 -13 81 2 99 16 20 27 14 35 -19z m824 -82
c-3 -35 -4 -33 -12 19 -5 32 -5 66 0 75 6 14 9 9 12 -19 2 -21 2 -55 0 -75z
m-969 3 c-9 -8 -10 -2 -5 29 3 22 7 47 8 55 1 8 3 -5 5 -29 3 -26 -1 -48 -8
-55z m471 59 c0 -7 14 -23 30 -35 36 -26 37 -36 5 -75 -24 -29 -24 -29 -45
-10 -34 31 -43 54 -32 83 6 15 13 35 16 45 6 20 26 14 26 -8z m260 -87 c25
-42 25 -69 -1 -119 -23 -45 -33 -43 -64 14 -17 33 -17 34 9 85 14 29 29 52 31
52 3 0 14 -15 25 -32z m-515 -5 c13 -16 25 -34 25 -41 0 -21 -52 -104 -60 -95
-29 31 -33 118 -7 151 13 16 15 16 42 -15z m149 -25 c-3 -12 -13 -28 -20 -36
-17 -16 -17 -14 -3 27 12 35 34 44 23 9z m-294 -19 c0 -10 -4 -19 -10 -19 -5
0 -10 12 -10 26 0 14 4 23 10 19 6 -3 10 -15 10 -26z m819 -28 c17 -52 14 -83
-6 -79 -22 4 -39 64 -29 103 8 32 18 25 35 -24z m-329 21 c0 -4 -7 -16 -15
-26 -22 -29 -40 -7 -19 22 14 20 35 22 34 4z m-128 -9 c24 -22 23 -46 -6 -79
l-23 -28 -17 27 c-18 26 -15 57 6 85 13 16 18 15 40 -5z m-146 -79 c-3 -8 -12
-14 -21 -14 -9 0 -15 -9 -15 -26 0 -16 -5 -24 -12 -21 -19 6 -13 33 13 72 19
27 25 31 32 19 5 -8 6 -22 3 -30z m-151 -16 c4 -17 3 -28 -3 -28 -10 0 -22 32
-22 60 0 22 18 -1 25 -32z m356 4 c-5 -10 -19 -26 -30 -36 -29 -26 -29 1 0 38
22 28 45 27 30 -2z m129 -8 c0 -8 -6 -11 -15 -8 -8 4 -15 15 -15 26 0 17 3 18
15 8 8 -7 15 -19 15 -26z m167 -6 c-13 -20 -27 -24 -27 -8 0 20 24 50 31 38 4
-6 2 -19 -4 -30z m-461 -23 c-5 -18 0 -34 16 -55 21 -29 21 -30 3 -50 -23 -25
-33 -25 -62 2 -30 28 -29 39 5 87 31 46 47 52 38 16z m-217 -31 c12 -19 21
-37 21 -38 0 -2 -11 -11 -25 -20 -28 -19 -65 -13 -65 9 0 19 32 85 41 85 4 0
16 -16 28 -36z m515 23 c1 -1 11 -17 24 -35 l23 -33 -27 -47 c-34 -60 -63 -92
-84 -92 -9 0 -30 24 -48 54 l-33 54 28 46 c15 25 34 46 40 46 7 0 13 5 13 11
0 8 11 9 32 5 17 -3 32 -7 32 -9z m216 -37 c15 -56 0 -84 -35 -68 -33 15 -42
51 -21 83 24 36 44 31 56 -15z m100 8 c0 -25 -3 -29 -10 -18 -13 20 -13 50 0
50 6 0 10 -15 10 -32z m-784 -85 c-9 -28 -75 -95 -86 -88 -14 9 -12 35 3 35 6
0 27 18 46 40 36 41 47 45 37 13z m644 -55 c0 -10 -6 -18 -14 -18 -20 0 -56
53 -56 81 0 22 2 21 35 -11 19 -19 35 -42 35 -52z m-380 65 c0 -4 -16 -32 -36
-61 -57 -82 -100 -79 -145 11 -22 42 -18 46 18 17 38 -29 85 -26 119 9 30 29
44 37 44 24z m470 -33 c0 -11 -4 -20 -10 -20 -5 0 -10 9 -10 20 0 11 5 20 10
20 6 0 10 -9 10 -20z"/>
<path d="M4905 9444 c-250 -35 -455 -213 -515 -449 -11 -43 -20 -111 -20 -151
0 -40 -4 -76 -10 -79 -25 -16 11 -167 68 -288 22 -45 44 -94 50 -109 6 -15 31
-39 54 -54 212 -132 347 -233 467 -349 114 -110 160 -166 330 -410 140 -200
187 -259 286 -364 l60 -63 1 -117 c0 -64 4 -146 8 -183 8 -65 10 -68 42 -78
18 -6 38 -17 44 -25 10 -12 5 -13 -27 -8 -67 11 -88 19 -91 36 -2 10 3 17 12
17 19 0 22 41 6 71 -12 21 -40 26 -40 7 -1 -35 -17 -42 -57 -23 l-38 19 45 10
c44 9 45 10 15 17 -16 3 -49 7 -72 8 -64 2 -91 15 -95 48 -3 24 -14 33 -75 64
-180 89 -354 77 -525 -37 -236 -157 -300 -450 -145 -661 72 -97 160 -150 305
-184 48 -11 98 -29 111 -39 l24 -17 -21 -31 c-12 -16 -22 -40 -22 -52 0 -12
-12 -31 -26 -43 -14 -12 -43 -37 -64 -54 -27 -24 -47 -33 -72 -33 -111 0 -282
-78 -380 -173 -57 -55 -124 -141 -149 -189 -15 -30 -25 -38 -47 -38 -58 0
-183 -44 -327 -115 -187 -92 -209 -99 -421 -140 -224 -44 -340 -83 -587 -201
-313 -149 -548 -239 -736 -283 -97 -23 -117 -24 -599 -21 -57 1 -109 -3 -115
-8 -7 -4 -67 -26 -134 -48 -67 -21 -125 -45 -127 -51 -3 -7 6 -20 19 -29 23
-15 34 -15 133 0 70 10 119 13 142 7 35 -8 34 -9 -103 -75 -147 -71 -161 -87
-105 -114 49 -23 108 -17 174 18 46 24 94 37 195 55 171 29 189 20 49 -26 -78
-26 -95 -39 -85 -69 7 -22 10 -22 94 -15 47 3 136 10 196 15 128 10 196 32
327 107 99 57 75 52 518 99 312 32 563 69 632 93 77 26 110 45 216 118 116 80
122 83 340 137 175 44 334 97 417 139 22 11 105 57 185 102 80 45 155 85 166
89 33 10 70 -40 78 -104 13 -98 58 -215 166 -435 79 -160 123 -236 159 -278
59 -68 62 -85 25 -172 -33 -80 -42 -171 -20 -213 23 -44 72 -78 136 -94 41
-11 56 -19 58 -34 2 -16 -6 -22 -43 -32 -25 -6 -45 -15 -45 -19 0 -14 -44 -58
-70 -71 -53 -26 -85 -50 -82 -62 1 -6 -2 -9 -8 -5 -10 6 -24 -8 -114 -110 -56
-64 -105 -170 -116 -254 -6 -41 -17 -83 -26 -92 -9 -10 -17 -23 -18 -31 -1 -7
-10 -28 -20 -47 -18 -35 -18 -88 0 -203 5 -27 -1 -56 -22 -108 -26 -66 -32
-74 -76 -96 -102 -52 -225 -206 -251 -315 -4 -17 -18 -31 -37 -39 -32 -13 -83
-71 -94 -106 -4 -12 -24 -34 -46 -49 -21 -15 -41 -33 -44 -41 -5 -14 8 -61 31
-104 7 -14 13 -32 13 -41 0 -9 12 -33 26 -54 14 -21 23 -44 19 -54 -3 -8 -36
-60 -72 -114 l-67 -98 -13 52 c-28 109 -105 204 -313 384 -91 79 -176 154
-190 167 -14 13 -81 73 -150 135 -69 61 -178 166 -242 233 l-118 123 32 16
c69 34 71 96 8 194 -35 53 -42 87 -19 87 5 0 9 21 9 48 0 26 7 60 15 75 21 41
26 145 9 187 -61 145 -263 185 -544 109 -122 -33 -168 -36 -330 -20 -117 11
-199 5 -310 -25 -177 -46 -398 -161 -451 -234 -25 -35 -44 -110 -35 -145 16
-64 94 -103 251 -125 102 -14 138 -26 161 -51 13 -14 25 -18 46 -14 18 4 38 0
57 -11 23 -14 33 -15 44 -6 11 9 18 8 32 -8 11 -12 28 -20 40 -18 12 1 33 -7
49 -19 15 -12 34 -19 42 -16 8 3 23 -6 36 -22 13 -17 27 -25 39 -22 11 3 19 0
19 -7 0 -17 55 -68 63 -60 4 4 15 0 24 -8 10 -9 33 -19 51 -23 27 -5 32 -11
32 -34 0 -50 20 -89 53 -104 62 -29 140 -56 149 -51 4 3 8 0 8 -6 0 -6 5 -8
10 -5 6 4 17 1 25 -5 8 -6 18 -9 23 -6 6 3 15 -1 22 -9 18 -21 31 -19 63 11
28 25 29 26 49 7 72 -64 233 -291 413 -583 60 -96 150 -238 200 -315 91 -140
152 -240 239 -390 85 -150 123 -188 238 -245 127 -62 173 -65 279 -20 127 54
226 136 334 279 38 50 71 89 73 86 6 -6 -17 -131 -34 -184 -9 -25 -43 -94 -75
-152 -101 -181 -150 -346 -151 -509 -1 -161 36 -220 139 -220 80 0 110 22 169
126 27 48 58 97 70 110 12 12 24 29 27 38 4 9 14 16 24 16 10 0 26 14 35 30
12 20 22 28 33 24 11 -5 19 2 28 25 9 24 17 31 39 31 18 0 33 9 48 30 17 23
29 30 55 30 29 0 36 4 41 26 5 20 12 25 33 24 52 -4 59 0 66 30 6 28 9 30 39
24 31 -5 34 -3 39 24 7 33 -1 30 156 51 87 12 211 60 261 100 30 25 34 34 33
70 -1 23 3 41 8 41 6 0 110 16 232 35 122 19 393 59 602 90 209 31 421 63 470
71 186 32 601 115 628 125 78 32 207 230 207 318 0 128 -61 242 -221 416 -20
22 -49 56 -65 75 -15 19 -47 56 -71 82 -41 44 -43 50 -43 107 0 33 -3 67 -6
75 -3 9 -54 55 -113 103 -58 47 -123 102 -143 122 -21 19 -52 40 -70 45 -20 7
-34 19 -38 34 -14 59 -129 152 -188 152 -13 0 -20 5 -17 13 3 6 -3 22 -13 34
-23 28 -142 91 -189 98 -74 12 -79 14 -80 37 -3 36 -37 72 -84 90 -46 17 -49
23 -28 74 28 71 -28 168 -128 222 l-60 32 7 45 c4 25 9 47 11 48 122 98 168
141 186 179 27 54 63 227 63 302 0 165 -102 788 -160 977 -51 165 -161 396
-339 709 -140 246 -161 343 -109 505 34 106 52 255 43 369 -11 154 -55 588
-65 645 -5 29 -19 68 -30 86 -25 40 -306 314 -405 395 -38 31 -110 85 -160
120 -216 152 -314 227 -372 283 l-62 61 83 26 c117 38 176 73 249 149 102 105
167 264 167 403 0 70 -28 178 -65 256 -65 137 -222 266 -365 300 -55 13 -164
21 -205 16z m170 -152 c-3 -3 -11 0 -18 7 -9 10 -8 11 6 5 10 -3 15 -9 12 -12z
m41 -1129 c44 -31 151 -108 239 -171 299 -215 350 -256 490 -397 137 -137 175
-189 175 -237 -1 -20 -3 -19 -15 10 -37 85 -303 318 -630 552 -192 137 -244
178 -302 234 -51 49 -63 66 -44 66 5 0 44 -25 87 -57z m836 -877 c4 -6 8 -19
8 -28 0 -9 3 -25 6 -35 4 -11 -4 -6 -19 12 l-25 29 -7 -42 c-9 -54 -25 -54
-25 1 0 68 9 89 34 81 11 -4 24 -12 28 -18z m-112 -219 c0 -29 -3 -70 -7 -92
-6 -36 -7 -38 -14 -15 -9 32 -11 133 -3 154 11 30 24 5 24 -47z m-395 -238 c4
-11 27 -30 51 -42 24 -11 44 -24 44 -28 0 -3 -33 -4 -72 -1 -95 6 -125 27 -73
50 14 6 25 18 25 27 0 22 18 18 25 -6z m315 -151 c0 -7 -5 -20 -10 -28 -8 -13
-11 -12 -24 5 -21 28 -20 35 9 35 14 0 25 -6 25 -12z m68 -44 c37 -10 25 -24
-23 -24 -42 0 -54 7 -38 23 8 9 31 9 61 1z m56 -102 c30 -61 29 -81 -9 -112
-13 -11 -13 -8 2 18 18 31 18 32 -9 85 -29 55 -33 67 -20 67 4 0 20 -26 36
-58z m-714 9 c0 -5 -14 -11 -32 -15 -17 -3 -40 -14 -50 -23 -16 -14 -18 -14
-18 -1 0 9 6 20 13 26 22 18 87 28 87 13z m50 -103 c43 -2 55 0 55 11 0 8 -15
19 -32 23 -18 5 -33 13 -33 18 0 13 22 13 55 0 21 -8 26 -16 23 -38 -3 -26 -5
-27 -69 -30 -62 -3 -68 -1 -88 24 -32 41 -27 65 7 27 23 -28 35 -33 82 -35z
m546 -420 c14 -44 24 -82 21 -84 -3 -3 -25 37 -50 89 -24 52 -49 97 -56 101
-6 4 -11 15 -11 24 0 11 10 7 35 -18 24 -24 42 -56 61 -112z m-165 70 c16 -23
29 -46 29 -51 0 -6 -18 14 -40 43 -22 29 -40 55 -40 57 0 11 24 -13 51 -49z
m206 -284 c-3 -3 -12 -4 -19 -1 -8 3 -5 6 6 6 11 1 17 -2 13 -5z m-725 -25
c52 -26 41 -34 -64 -44 -42 -3 -104 -12 -137 -19 -53 -11 -59 -11 -48 2 19 23
148 82 180 82 15 0 46 -9 69 -21z m-552 -196 c-11 -16 -43 -59 -70 -97 -52
-72 -65 -74 -30 -6 20 40 100 130 114 130 4 0 -2 -12 -14 -27z m-182 -175 c22
-22 12 -34 -45 -52 -77 -25 -244 -96 -366 -157 -54 -28 -96 -45 -92 -39 26 43
291 191 428 241 63 22 60 22 75 7z m-533 -208 c-6 -9 -126 -50 -148 -50 -22 0
7 16 66 37 69 24 91 28 82 13z m-925 -374 c0 -7 -237 -83 -350 -112 -117 -30
-153 -49 -75 -39 l50 6 -35 -20 c-52 -30 -240 -103 -253 -98 -7 2 2 11 20 20
51 27 46 34 -20 31 -34 -1 -93 4 -132 11 -86 16 -125 18 -125 6 0 -11 86 -45
145 -57 69 -14 3 -17 -93 -4 -98 13 -152 32 -152 54 0 22 27 26 185 30 143 3
244 22 397 75 31 11 128 35 215 54 87 20 167 38 178 40 29 7 45 8 45 3z m-612
-1433 c-10 -2 -28 -2 -40 0 -13 2 -5 4 17 4 22 1 32 -1 23 -4z m497 -443 c-3
-5 -12 -10 -18 -10 -7 0 -6 4 3 10 19 12 23 12 15 0z m491 -242 c70 -75 71
-85 2 -24 -38 32 -68 60 -68 62 0 16 33 -3 66 -38z m199 -140 l60 -61 -53 44
c-45 36 -82 79 -70 79 2 0 30 -28 63 -62z m4096 -196 c31 -32 62 -70 69 -83
l13 -24 -29 25 c-58 49 -134 125 -134 132 0 21 29 3 81 -50z m-636 -12 c-3 -5
-12 -10 -18 -10 -7 0 -6 4 3 10 19 12 23 12 15 0z m-3148 -135 c76 -91 75
-110 -2 -30 -42 44 -81 89 -87 99 -17 32 46 -18 89 -69z m3050 79 c-3 -3 -12
-4 -19 -1 -8 3 -5 6 6 6 11 1 17 -2 13 -5z m-805 -142 c46 -21 112 -49 146
-62 43 -17 68 -33 77 -50 13 -25 85 -91 136 -124 23 -14 36 -15 85 -7 67 10
169 47 256 91 l58 30 138 -59 c75 -32 143 -60 151 -63 8 -2 -39 -12 -105 -21
-233 -33 -400 -88 -559 -182 -106 -63 -220 -115 -361 -163 -136 -47 -273 -82
-279 -71 -9 14 -44 11 -123 -10 -39 -10 -74 -16 -77 -13 -3 3 -5 15 -5 28 0
12 -3 30 -7 39 -7 20 -98 65 -131 65 -35 0 -24 21 38 71 32 27 105 112 181
213 112 149 270 326 291 326 4 0 45 -17 90 -38z m1793 -77 c43 -43 65 -72 74
-103 7 -24 9 -47 5 -50 -4 -4 -9 -2 -11 4 -7 21 -54 79 -135 168 -80 87 -81
88 -39 65 24 -13 72 -51 106 -84z m-3435 -236 c-63 -122 -139 -223 -199 -261
-66 -41 -69 -35 -13 27 27 30 76 91 107 137 90 129 149 185 105 97z m1230
-573 c0 -2 -7 -6 -15 -10 -8 -3 -15 -1 -15 4 0 6 7 10 15 10 8 0 15 -2 15 -4z
m-60 -20 c0 -3 -4 -8 -10 -11 -5 -3 -10 -1 -10 4 0 6 5 11 10 11 6 0 10 -2 10
-4z"/>
<path d="M10196 33 c-1 -2 -2296 -3 -5099 -3 -4496 0 -5097 -2 -5097 -15 0
-13 603 -15 5120 -15 4909 0 5120 1 5120 18 0 11 -7 18 -20 18 -12 0 -22 -2
-24 -3z"/>
</g>
</svg>
