<svg xmlns="http://www.w3.org/2000/svg" width="165" height="165" fill="none" viewBox="0 0 165 165" id="dumbbell">
  <g clip-path="url(#clip0_258_37622)">
    <path fill="#000" fill-rule="evenodd" d="M120.621 129.548H43.9327C42.589 129.548 41.5332 128.492 41.5332 127.149C41.5332 125.805 42.589 124.749 43.9327 124.749H120.621C121.965 124.749 123.021 125.805 123.021 127.149C123.021 128.492 121.965 129.548 120.621 129.548ZM120.621 109.584H43.9327C42.589 109.584 41.5332 108.528 41.5332 107.185C41.5332 105.841 42.589 104.785 43.9327 104.785H120.621C121.965 104.785 123.021 105.841 123.021 107.185C123.021 108.528 121.965 109.584 120.621 109.584Z" clip-rule="evenodd"></path>
    <path fill="#000" fill-rule="evenodd" d="M139.626 147.403H122.733C120.333 147.403 118.318 145.388 118.318 142.988V91.4464C118.318 88.9509 120.333 87.0312 122.733 87.0312H139.626C142.121 87.0312 144.041 89.0468 144.041 91.4464V142.988C144.137 145.388 142.121 147.403 139.626 147.403ZM122.829 142.7H139.338V91.7343H122.829V142.7Z" clip-rule="evenodd"></path>
    <path fill="#000" fill-rule="evenodd" d="M152.583 138.667H142.985C140.969 138.667 139.53 136.94 139.53 134.732C139.53 133.388 140.585 132.333 141.929 132.333C142.985 132.333 143.753 133.005 144.137 133.868H151.623V100.371H144.137C143.849 101.331 142.985 102.003 141.929 102.003C140.585 102.003 139.53 100.851 139.53 99.6992C139.53 97.3956 140.969 95.668 142.985 95.668H152.679C154.503 95.668 156.134 97.3956 156.134 99.6992V134.732C156.134 136.844 154.503 138.667 152.583 138.667Z" clip-rule="evenodd"></path>
    <path fill="#000" fill-rule="evenodd" d="M161.029 126.865H154.695C152.967 126.865 151.431 125.522 151.431 123.794 151.431 122.45 152.583 121.394 153.831 121.394 154.503 121.394 155.078 121.682 155.462 122.066H159.59V112.084H155.462C155.078 112.468 154.407 112.756 153.831 112.756 152.583 112.756 151.431 111.7 151.431 110.357 151.431 108.629 152.967 107.285 154.695 107.285H161.029C162.757 107.285 164.101 108.629 164.101 110.357V123.698C164.101 125.522 162.757 126.865 161.029 126.865zM41.8211 147.403H25.0245C22.625 147.403 20.6094 145.388 20.6094 142.988V91.4464C20.6094 88.9509 22.625 87.0312 25.0245 87.0312H41.8211C44.3167 87.0312 46.1403 88.9509 46.1403 91.4464V142.988C46.3322 145.388 44.3167 147.403 41.8211 147.403zM25.1205 142.7H41.5332V91.7343H25.1205V142.7z" clip-rule="evenodd"></path>
    <path fill="#000" fill-rule="evenodd" d="M21.5693 138.667H11.9712C9.95558 138.667 8.51587 136.94 8.51587 134.732V99.6992C8.51587 97.3956 9.95558 95.668 11.9712 95.668H21.5693C23.5849 95.668 25.1206 97.3956 25.1206 99.6992C25.1206 101.043 24.0648 102.099 22.721 102.099C21.6652 102.099 20.8974 101.427 20.5135 100.467H13.2189V134.06H20.6095C20.8974 133.101 21.8572 132.429 22.913 132.429C24.2567 132.429 25.1206 133.484 25.1206 134.732C25.1206 136.844 23.5849 138.667 21.5693 138.667Z" clip-rule="evenodd"></path>
    <path fill="#000" fill-rule="evenodd" d="M9.95551 126.863H3.62077C1.89312 126.863 0.357422 125.519 0.357422 123.792V110.45C0.357422 108.723 1.89312 107.379 3.62077 107.379H9.95551C11.6832 107.379 13.2189 108.723 13.2189 110.45C13.2189 111.794 12.0671 112.85 10.8193 112.85C10.1475 112.85 9.57159 112.658 9.18766 112.178H5.06048V122.16H9.18766C9.57159 121.776 10.1475 121.488 10.8193 121.488C12.0671 121.488 13.2189 122.64 13.2189 123.888C13.2189 125.519 11.8751 126.863 9.95551 126.863Z" clip-rule="evenodd"></path>
  </g>
  <defs>
    <clipPath id="clip0_258_37622">
      <rect width="163.839" height="163.839" fill="#fff" transform="translate(.357 .36)"></rect>
    </clipPath>
  </defs>
</svg>
