<?xml version="1.0" standalone="no"?>
<!DOCTYPE svg PUBLIC "-//W3C//DTD SVG 20010904//EN"
 "http://www.w3.org/TR/2001/REC-SVG-20010904/DTD/svg10.dtd">
<svg version="1.0" xmlns="http://www.w3.org/2000/svg"
 width="1024.000000pt" height="1024.000000pt" viewBox="0 0 1024.000000 1024.000000"
 preserveAspectRatio="xMidYMid meet">

<g transform="translate(0.000000,1024.000000) scale(0.100000,-0.100000)"
fill="#000000" stroke="none">
<path d="M4978 9875 c42 -35 37 -40 -13 -15 -41 21 -135 26 -185 10 l-25 -8
25 -1 c14 -1 32 -6 40 -11 11 -7 -3 -10 -46 -10 -82 0 -161 -15 -278 -52 -68
-22 -93 -34 -80 -38 14 -5 -2 -14 -56 -31 l-75 -24 40 -5 40 -5 -95 -37 -95
-37 50 -1 c28 -1 41 -5 30 -7 -11 -3 -58 -24 -105 -46 l-85 -42 55 -3 55 -3
-60 -28 c-33 -16 -76 -38 -95 -51 l-35 -22 45 5 45 6 -39 -20 c-22 -10 -60
-19 -85 -19 l-46 -1 33 -29 c21 -19 43 -30 62 -30 17 0 30 -4 30 -10 0 -17
-39 -31 -66 -24 -37 9 -23 -11 24 -35 30 -16 34 -21 20 -26 -10 -4 -18 -11
-18 -16 0 -12 42 -11 74 1 32 12 33 3 6 -50 -24 -47 -25 -57 -5 -40 8 7 15 9
15 5 0 -4 7 -2 15 5 28 23 26 3 -2 -30 -27 -33 -27 -33 -3 -20 14 7 42 26 62
42 l36 28 15 -52 c23 -82 37 -155 37 -197 0 -33 4 -39 35 -54 44 -21 50 -45
40 -166 -4 -53 -8 -109 -9 -126 l-1 -30 57 1 56 1 12 -43 c8 -27 19 -44 31
-47 13 -3 19 -14 19 -31 0 -16 6 -26 14 -26 23 0 62 -54 76 -106 7 -27 18 -55
23 -62 22 -28 -37 -62 -300 -170 -78 -33 -168 -74 -199 -93 -83 -49 -184 -153
-234 -239 -78 -136 -110 -179 -180 -251 -39 -39 -70 -77 -70 -84 0 -24 -369
-387 -467 -460 -51 -37 -93 -70 -93 -72 0 -5 96 49 168 95 54 34 171 131 275
228 31 30 57 48 57 40 0 -17 -46 -139 -65 -175 l-14 -26 -2 25 -1 25 -8 -25
c-4 -14 -8 -21 -9 -16 -1 12 -34 -30 -60 -79 -13 -25 -19 -30 -15 -15 4 14
-15 -6 -41 -45 -71 -105 -73 -105 -49 -16 7 22 3 21 -47 -16 -30 -21 -75 -51
-100 -66 -149 -86 -299 -226 -536 -502 -288 -335 -473 -527 -473 -490 0 12
-19 0 -62 -40 -103 -93 -216 -164 -309 -194 l-84 -27 -17 -65 -17 -64 0 72
c-1 39 3 83 8 96 5 14 35 44 65 68 30 24 53 45 51 47 -2 2 -35 -17 -74 -42
-63 -41 -71 -49 -71 -77 0 -18 -16 -99 -35 -181 l-36 -148 19 -43 c30 -65 75
-121 127 -156 25 -17 50 -31 54 -31 19 0 45 44 45 75 0 25 6 36 22 44 12 5 51
34 86 63 34 30 106 88 158 129 106 84 130 119 175 259 15 47 39 101 53 120 57
80 228 191 527 342 314 158 460 273 550 433 46 83 49 86 154 152 110 70 256
181 350 264 l54 49 34 -21 34 -21 90 87 c109 105 174 140 264 139 72 0 111
-19 170 -81 181 -192 513 -1070 616 -1633 17 -92 22 -168 26 -387 l5 -273 45
31 c24 17 46 29 49 26 10 -10 95 -301 91 -311 -3 -7 -62 -88 -132 -181 -139
-183 -245 -340 -245 -360 0 -7 -32 -68 -70 -135 -39 -67 -69 -124 -66 -127 4
-4 120 155 157 215 12 18 20 21 49 16 117 -20 216 -63 318 -139 l64 -46 -70
-50 c-65 -45 -180 -109 -199 -109 -4 -1 -21 -24 -38 -53 -52 -90 -113 -114
-246 -97 -63 8 -79 7 -110 -8 l-35 -18 13 60 c18 78 32 102 95 172 42 46 46
53 21 36 -65 -46 -171 -158 -195 -207 -29 -57 -43 -114 -58 -232 -11 -83 -63
-256 -119 -396 -17 -43 -31 -81 -31 -86 0 -4 25 -1 57 7 41 10 65 11 87 4 29
-9 27 -10 -24 -12 -30 -1 -72 -7 -94 -13 -35 -11 -43 -20 -88 -109 -28 -53
-81 -137 -119 -185 -103 -132 -115 -155 -193 -380 -92 -263 -136 -367 -194
-468 -79 -135 -156 -222 -282 -319 -114 -88 -161 -116 -197 -116 -19 0 -42 -4
-51 -9 -10 -5 -39 -5 -67 0 -27 4 -82 13 -122 18 -39 6 -118 24 -176 41 -107
31 -184 38 -218 20 -10 -6 -25 -23 -33 -39 -17 -32 -9 -75 26 -143 17 -32 19
-44 9 -64 -9 -21 -8 -30 10 -55 24 -34 27 -34 58 -13 25 18 25 18 70 -45 21
-30 28 -48 21 -55 -16 -16 -12 -51 8 -69 24 -22 31 -21 57 3 l22 20 46 -40
c41 -36 45 -44 34 -61 -10 -16 -7 -23 21 -51 32 -32 34 -32 47 -14 8 10 16 24
18 29 7 22 197 -133 197 -161 0 -9 -127 -12 -542 -11 -299 1 -597 4 -663 8
l-120 6 73 28 c101 40 212 115 297 203 57 58 84 96 124 177 28 56 47 103 41
105 -16 6 -12 22 5 22 8 0 15 5 15 10 0 6 -4 10 -10 10 -5 0 -7 7 -3 16 4 11
8 12 13 4 8 -12 30 86 30 132 0 15 -5 28 -10 28 -7 0 -7 6 0 20 8 14 8 20 0
20 -6 0 -13 -6 -16 -13 -2 -7 -15 -13 -27 -14 -22 -2 -22 -2 2 11 13 7 30 28
37 47 l14 34 -36 -38 c-20 -21 -38 -37 -40 -34 -3 2 14 24 36 47 38 39 39 43
23 56 -12 9 -13 13 -5 14 9 0 11 10 6 38 -11 63 -45 143 -56 136 -7 -4 -8 -2
-4 5 16 26 -125 237 -152 226 -7 -2 -11 -1 -8 4 11 17 -105 105 -201 152 -24
11 -61 23 -83 26 -22 3 -37 9 -35 13 10 16 -104 34 -210 33 -108 -1 -266 -30
-289 -53 -6 -6 -16 -10 -24 -10 -8 0 -50 -21 -94 -47 -94 -56 -158 -122 -158
-164 0 -16 -4 -29 -9 -29 -16 0 -22 18 -9 23 7 2 9 8 5 13 -23 24 -123 -146
-156 -266 -114 -409 123 -835 539 -970 l55 -18 -55 -1 c-30 -1 -104 -5 -165
-11 -113 -10 -339 -23 -615 -37 l-155 -7 90 -7 c408 -32 2667 -53 4705 -45
2016 8 3535 30 3290 47 -164 12 -2504 43 -4237 56 -447 3 -813 9 -813 13 0 4
22 33 50 64 35 40 54 73 66 114 19 68 111 248 196 385 78 124 146 206 366 440
349 371 405 433 476 527 152 202 220 392 261 725 27 228 69 342 151 414 44 38
132 100 249 173 l41 26 44 -70 c65 -100 79 -112 133 -104 24 4 77 26 117 49
l74 42 96 -95 c52 -52 187 -176 300 -274 113 -98 242 -216 288 -263 104 -106
163 -136 267 -136 112 1 219 55 316 159 75 80 145 151 204 205 28 25 77 76
109 113 43 50 93 90 189 152 168 110 203 139 442 368 262 250 431 385 551 437
56 25 422 102 594 126 97 13 186 17 317 16 158 -2 191 0 247 17 45 14 72 30
90 51 48 57 25 147 -49 190 -41 24 -45 32 -11 19 20 -7 25 -5 30 13 9 33 8 35
-20 54 -25 16 -27 16 -44 -7 -15 -19 -16 -28 -7 -39 7 -8 8 -12 2 -9 -31 17
-132 61 -142 61 -7 0 -11 3 -8 5 5 5 -24 18 -115 48 -25 9 -52 18 -60 21 -8 3
-21 7 -28 9 -30 6 -23 14 12 14 20 0 35 -3 33 -7 -3 -5 8 -9 23 -10 21 -2 29
3 34 20 10 38 7 46 -24 62 -28 15 -30 14 -47 -12 -23 -37 -32 -43 -69 -43 -43
0 -175 44 -224 75 -23 14 -46 23 -53 19 -7 -4 -9 -4 -6 0 4 4 -4 19 -18 34
-15 16 -22 33 -19 44 3 10 9 26 12 36 4 13 -4 22 -31 35 l-35 17 -17 -35 c-16
-33 -55 -56 -70 -41 -4 3 3 6 15 6 l22 0 -21 21 c-13 13 -19 28 -15 40 3 10 9
28 12 38 5 16 -2 23 -31 35 -21 9 -39 16 -40 16 -2 0 -10 -18 -19 -39 -15 -39
-16 -40 -48 -30 -71 22 -83 27 -66 28 19 1 35 58 20 73 -5 5 -24 11 -42 11
-29 2 -34 -2 -44 -31 -9 -26 -25 -41 -71 -65 -78 -42 -102 -87 -120 -226 -22
-173 -61 -215 -310 -336 -182 -89 -299 -130 -515 -183 -288 -71 -388 -115
-502 -220 -106 -98 -253 -317 -220 -329 6 -3 12 -9 12 -15 0 -6 -9 -5 -21 3
-11 8 -35 48 -53 89 l-32 75 78 59 79 59 -58 39 c-32 21 -74 48 -94 58 -31 16
-43 33 -79 117 -61 141 -112 243 -122 243 -4 0 -14 -10 -22 -22 -9 -13 -39
-43 -68 -68 -60 -51 -64 -58 85 138 147 193 198 315 218 522 21 223 -36 502
-164 800 l-32 75 -6 -76 c-6 -70 -51 -233 -68 -243 -4 -3 -1 28 6 67 13 78 16
168 7 205 -6 20 -13 12 -62 -59 -30 -44 -75 -102 -98 -127 l-43 -47 53 106
c58 117 80 192 96 325 11 102 13 257 3 268 -4 3 -14 -14 -24 -38 -22 -59 -98
-172 -145 -216 -20 -19 -35 -30 -33 -25 2 6 30 62 61 125 32 63 71 164 88 223
17 60 34 116 37 125 3 10 -11 -3 -33 -28 -67 -79 -231 -226 -241 -216 -2 2 17
33 43 68 54 72 120 207 158 322 14 43 26 81 26 84 0 3 -15 -16 -32 -43 -85
-127 -85 -127 -49 -28 54 148 88 364 89 568 0 101 -1 112 -9 69 -31 -183 -172
-445 -341 -637 -107 -120 -123 -119 -43 2 84 128 213 377 283 547 44 107 89
268 106 379 4 22 9 54 12 70 5 23 -8 10 -56 -57 -68 -96 -203 -244 -253 -280
l-32 -23 34 45 c64 85 178 265 257 404 43 77 99 160 124 186 84 86 207 127
413 137 124 6 127 7 127 29 0 20 6 23 68 29 108 10 386 47 394 51 4 3 49 -3
100 -11 117 -21 143 -17 375 51 335 99 426 144 730 362 386 278 384 277 503
285 47 3 105 13 130 22 78 27 164 103 216 191 9 15 10 9 7 -32 -4 -39 -1 -54
12 -68 29 -29 58 -16 73 30 11 35 17 41 34 36 11 -3 24 1 29 9 16 26 10 171
-10 227 l-18 53 -6 -57 c-3 -31 -9 -59 -12 -62 -13 -14 -25 26 -25 86 0 57 -2
63 -25 72 -88 35 -88 29 -5 67 41 19 103 41 137 48 34 7 77 18 97 25 37 12 62
42 51 60 -12 20 -160 11 -256 -15 -52 -14 -145 -39 -208 -55 -129 -33 -108
-18 -318 -226 -128 -127 -166 -159 -232 -193 -104 -54 -272 -126 -473 -201
-201 -76 -380 -151 -375 -157 6 -6 253 16 302 27 22 5 41 7 43 5 8 -7 -330
-167 -343 -162 -7 3 -16 3 -19 -1 -4 -3 -16 -7 -28 -9 -12 -2 -31 -11 -42 -21
-11 -9 -16 -11 -12 -4 4 6 2 12 -3 12 -6 0 -11 -7 -11 -15 0 -8 -5 -15 -11
-15 -5 0 -7 5 -3 11 4 8 -1 9 -17 4 -13 -4 -25 -11 -27 -16 -2 -4 -9 -6 -17
-3 -8 3 -16 -4 -20 -17 -6 -16 -9 -18 -16 -8 -6 11 -14 8 -35 -11 -24 -23 -23
-17 17 58 45 85 82 131 134 170 l30 21 -42 1 c-61 0 -292 -20 -333 -30 -28 -6
-16 -8 55 -10 l90 -2 -97 -47 -98 -48 72 -13 71 -12 -34 -15 c-51 -22 -188
-49 -339 -68 -74 -10 -143 -21 -153 -26 -16 -9 -17 -2 -14 88 3 91 15 138 39
154 6 4 31 4 56 1 26 -2 44 -2 41 2 -9 9 -179 33 -294 41 -91 6 -122 12 -340
61 -101 23 -143 28 -270 28 -172 0 -242 -15 -427 -89 l-109 -44 -121 30 c-67
16 -148 39 -180 50 -32 11 -72 21 -89 23 -16 2 -48 18 -70 35 l-40 32 36 -66
c24 -46 35 -80 35 -108 0 -40 -17 -117 -25 -117 -19 0 -263 294 -300 361 -25
46 -30 67 -32 144 l-4 90 30 -35 c16 -19 64 -80 105 -134 76 -99 88 -108 61
-44 -17 43 -49 218 -70 393 -14 118 -39 238 -61 289 -5 14 -4 17 4 12 16 -10
15 -1 -7 44 -21 44 -18 49 12 23 17 -15 16 -10 -6 33 -14 28 -38 66 -53 84
l-28 33 25 -8 c24 -8 24 -8 5 14 -11 11 -46 34 -79 51 -59 29 -59 30 -33 40
15 5 33 10 39 10 7 0 4 5 -6 11 -13 7 -27 7 -49 0 -45 -16 -48 -14 -48 22 0
21 -3 28 -9 19 -7 -11 -16 -9 -47 11 -22 14 -50 28 -64 32 -23 7 -22 6 8 -20z
m141 -674 c77 -77 77 -215 0 -292 l-37 -37 14 -49 c24 -76 14 -175 -25 -253
-28 -55 -71 -121 -71 -109 0 2 7 22 15 44 24 68 19 140 -21 250 -53 150 -66
199 -48 184 20 -16 28 11 21 72 -3 27 -3 49 0 49 4 0 21 -14 39 -31 29 -28 31
-34 22 -66 -12 -44 -7 -48 30 -29 38 20 38 21 47 77 6 40 4 49 -20 77 -26 31
-26 52 0 52 40 0 69 -86 44 -132 -6 -11 -8 -22 -5 -25 3 -4 13 10 21 30 24 58
-9 165 -53 168 -51 4 -74 -15 -92 -74 -11 -34 -15 -38 -18 -19 -5 30 14 84 39
110 25 28 72 29 98 3z m4389 -106 c31 -8 69 -17 83 -19 15 -4 29 -14 32 -26 7
-25 -15 -26 -132 -4 -47 9 -104 14 -126 11 -38 -5 -39 -5 -20 10 24 18 75 42
93 43 7 0 38 -7 70 -15z m229 -49 c24 -20 25 -26 14 -40 -16 -19 -59 -20 -83
-2 -10 7 -22 25 -27 39 -10 26 -10 27 29 27 27 0 48 -7 67 -24z m-4090 -528
c-3 -7 -5 -2 -5 12 0 14 2 19 5 13 2 -7 2 -19 0 -25z m58 -85 c-5 -21 -7 -45
-6 -53 1 -12 0 -12 -7 -2 -5 8 -5 31 1 58 12 53 23 51 12 -3z m1472 15 c-3 -7
-5 -2 -5 12 0 14 2 19 5 13 2 -7 2 -19 0 -25z m-134 -7 c-24 -38 -83 -104 -88
-99 -5 5 39 74 68 106 29 31 42 27 20 -7z m134 -203 c-3 -8 -6 -5 -6 6 -1 11
2 17 5 13 3 -3 4 -12 1 -19z m-1687 -72 c0 -2 -7 -7 -16 -10 -8 -3 -12 -2 -9
4 6 10 25 14 25 6z m1717 -73 c-3 -10 -5 -4 -5 12 0 17 2 24 5 18 2 -7 2 -21
0 -30z m-1772 -3 c3 -6 -1 -7 -9 -4 -18 7 -21 14 -7 14 6 0 13 -4 16 -10z m35
-14 c0 -2 -7 -7 -16 -10 -8 -3 -12 -2 -9 4 6 10 25 14 25 6z m-1839 -813 c-12
-20 -14 -14 -5 12 4 9 9 14 11 11 3 -2 0 -13 -6 -23z m13 -39 c3 -8 2 -12 -4
-9 -6 3 -10 10 -10 16 0 14 7 11 14 -7z m36 -78 c0 -12 -5 -7 -19 24 -11 24
-11 24 3 6 9 -11 16 -24 16 -30z m38 -51 c-3 -3 -9 2 -12 12 -6 14 -5 15 5 6
7 -7 10 -15 7 -18z m-1805 -1697 c-10 -18 -48 -63 -85 -99 -37 -36 -74 -81
-82 -99 -12 -31 -14 -32 -20 -12 -5 14 5 51 28 108 19 48 37 88 38 89 4 3 120
42 131 44 5 0 0 -14 -10 -31z m4624 -509 c-14 -8 -22 -8 -30 0 -8 8 -3 11 19
11 25 -1 27 -2 11 -11z m-97 -29 c0 -11 -68 -25 -77 -16 -4 3 5 6 20 6 14 0
29 5 32 10 8 13 25 13 25 0z m240 -14 c0 -2 -7 -7 -16 -10 -8 -3 -12 -2 -9 4
6 10 25 14 25 6z m-372 -23 c-10 -2 -18 -9 -18 -14 0 -6 -4 -8 -9 -5 -5 3 -26
-1 -46 -10 -20 -8 -42 -13 -48 -10 -7 2 -4 5 6 5 11 1 15 6 11 13 -5 7 -1 9
13 6 11 -3 31 1 44 8 13 7 33 13 44 12 17 0 17 -1 3 -5z m-151 -29 c-3 -3 -12
-4 -19 -1 -8 3 -5 6 6 6 11 1 17 -2 13 -5z m2896 -80 c-26 -20 -36 -17 -15 4
9 11 21 17 25 14 5 -2 0 -10 -10 -18z m133 -55 c25 -17 43 -33 41 -36 -3 -2
-24 9 -47 26 -24 17 -47 28 -53 24 -6 -3 -7 -1 -3 5 10 16 12 16 62 -19z
m-2850 -1 c4 -6 3 -8 -4 -4 -6 3 -14 1 -18 -5 -8 -13 -94 -53 -100 -46 -3 2
12 11 33 20 21 8 47 22 58 31 24 19 22 18 31 4z m2725 -15 c13 -15 12 -15 -7
-5 -12 6 -24 8 -28 5 -3 -3 -6 -1 -6 5 0 18 25 14 41 -5z m-308 -20 c-7 -2
-21 -2 -30 0 -10 3 -4 5 12 5 17 0 24 -2 18 -5z m260 -40 c-7 -2 -19 -2 -25 0
-7 3 -2 5 12 5 14 0 19 -2 13 -5z m-2858 -12 c-16 -4 -29 -12 -28 -18 1 -6
-15 -10 -38 -10 -22 0 -37 2 -33 6 10 10 78 29 104 29 22 0 21 -1 -5 -7z m-10
-141 c-3 -5 -15 -15 -25 -20 -16 -8 -18 -8 -14 5 3 8 10 13 14 10 5 -3 11 -1
15 5 3 5 8 10 11 10 3 0 2 -4 -1 -10z m2465 -20 c-20 -13 -33 -13 -25 0 3 6
14 10 23 10 15 0 15 -2 2 -10z m-2555 -60 c-16 -16 -31 -28 -33 -25 -6 6 39
52 52 54 6 1 -3 -12 -19 -29z m2967 -45 c14 -19 8 -27 -8 -11 -8 9 -20 16 -25
16 -6 0 -7 5 -3 12 5 7 2 9 -9 5 -11 -4 -14 -2 -10 9 5 13 9 12 27 -3 11 -10
24 -22 28 -28z m-3022 -4 c0 -5 -7 -12 -16 -15 -14 -5 -15 -4 -4 9 14 17 20
19 20 6z m-24 -43 c4 -7 4 -10 -1 -6 -4 4 -15 2 -24 -5 -14 -11 -14 -10 -2 6
16 20 18 21 27 5z m-68 -58 c-7 -10 -14 -17 -17 -15 -4 4 18 35 25 35 2 0 -1
-9 -8 -20z m-38 -49 c-5 -11 -15 -21 -22 -23 -7 -3 -13 -13 -13 -23 0 -10 -6
-20 -12 -22 -24 -8 -13 21 19 54 37 38 43 41 28 14z m194 0 c3 -4 -4 -17 -17
-27 -22 -19 -22 -19 -4 2 9 11 14 24 10 27 -3 4 -4 7 0 7 3 0 8 -4 11 -9z
m-287 -109 c-15 -16 -24 -32 -20 -37 5 -4 2 -5 -4 -1 -10 5 -6 16 14 41 15 19
29 32 32 29 2 -2 -8 -17 -22 -32z m223 25 c0 -2 -12 -14 -27 -28 l-28 -24 24
28 c23 25 31 32 31 24z m-60 -61 c0 -2 -8 -10 -17 -17 -16 -13 -17 -12 -4 4
13 16 21 21 21 13z m-200 -16 c0 -5 -2 -10 -4 -10 -3 0 -8 5 -11 10 -3 6 -1
10 4 10 6 0 11 -4 11 -10z m-15 -20 c4 -6 2 -9 -4 -8 -5 2 -17 -6 -26 -17 -17
-20 -10 0 8 23 12 15 14 15 22 2z m1280 -493 c90 -185 126 -281 125 -337 -1
-25 -1 -25 -16 5 l-14 30 5 -35 c6 -38 -7 -268 -13 -235 -17 93 -74 221 -146
328 -43 64 -44 74 -3 39 16 -14 17 -12 11 34 -4 27 -17 107 -30 178 -23 125
-29 186 -19 186 3 0 48 -87 100 -193z m-1900 -156 c-18 -51 -57 -123 -51 -93
2 12 3 22 1 22 -2 0 -38 -47 -80 -105 -84 -115 -102 -134 -75 -78 9 21 21 49
24 63 6 22 4 21 -14 -7 -12 -18 -24 -33 -26 -33 -5 0 5 56 22 115 17 64 55
100 135 130 35 13 67 24 71 24 4 1 1 -16 -7 -38z m-495 -371 c0 -5 -8 -10 -17
-11 -10 0 -26 -2 -35 -4 -20 -4 -24 11 -5 18 22 9 57 7 57 -3z m227 -26 c-3
-3 -12 -4 -19 -1 -8 3 -5 6 6 6 11 1 17 -2 13 -5z m47 -13 c4 -5 -3 -7 -14 -4
-23 6 -26 13 -6 13 8 0 17 -4 20 -9z m212 -59 c-6 -5 -56 21 -56 29 0 5 13 0
29 -9 16 -9 28 -18 27 -20z m-76 -4 c0 -5 -9 -4 -20 2 -11 6 -20 12 -20 14 0
2 9 2 20 -1 11 -3 20 -9 20 -15z m50 -34 c0 -2 -9 0 -20 6 -11 6 -20 13 -20
16 0 2 9 0 20 -6 11 -6 20 -13 20 -16z m-371 -75 c72 -23 75 -28 16 -22 -33 3
-65 6 -72 6 -14 0 -5 27 10 27 6 0 27 -5 46 -11z m-2999 -865 c0 -2 -7 -4 -15
-4 -8 0 -15 4 -15 10 0 5 7 7 15 4 8 -4 15 -8 15 -10z m43 9 c-7 -2 -19 -2
-25 0 -7 3 -2 5 12 5 14 0 19 -2 13 -5z m4 -29 c-3 -3 -12 -4 -19 -1 -8 3 -5
6 6 6 11 1 17 -2 13 -5z m61 -1 c-10 -2 -26 -2 -35 0 -10 3 -2 5 17 5 19 0 27
-2 18 -5z m-98 -7 c0 -2 -9 -6 -20 -9 -11 -3 -18 -1 -14 4 5 9 34 13 34 5z
m-59 -49 c-10 -9 -11 -8 -5 6 3 10 9 15 12 12 3 -3 0 -11 -7 -18z m-5 -29 c4
-7 3 -8 -4 -4 -7 4 -12 2 -12 -5 0 -7 -12 -27 -26 -46 -18 -24 -24 -41 -20
-59 8 -29 1 -31 -13 -5 -8 14 -2 30 25 75 39 61 39 62 50 44z m769 -78 c2 0 2
6 -1 14 -3 7 2 16 11 20 11 4 14 2 8 -7 -4 -6 -8 -14 -9 -17 0 -3 -4 -13 -8
-22 -4 -9 -1 -28 8 -45 10 -19 15 -22 16 -11 0 9 4 19 8 22 5 3 6 -9 4 -25 -4
-28 -6 -29 -22 -14 -9 8 -22 34 -29 58 -22 75 -23 84 -6 55 9 -16 18 -28 20
-28z m33 -15 c-6 -13 -16 -21 -21 -18 -8 5 -7 8 1 11 7 2 12 10 12 18 0 8 4
14 10 14 6 0 5 -10 -2 -25z m-344 -1 c3 -8 2 -12 -4 -9 -6 3 -10 10 -10 16 0
14 7 11 14 -7z m-11 -39 c-3 -9 -8 -14 -10 -11 -3 3 -2 9 2 15 9 16 15 13 8
-4z m157 -5 c0 -5 -7 -7 -15 -4 -8 4 -15 8 -15 10 0 2 7 4 15 4 8 0 15 -4 15
-10z m63 -7 c-7 -2 -19 -2 -25 0 -7 3 -2 5 12 5 14 0 19 -2 13 -5z m216 -37
c-3 -3 -11 5 -18 17 -13 21 -12 21 5 5 10 -10 16 -20 13 -22z m-481 -31 c-3
-3 -9 2 -12 12 -6 14 -5 15 5 6 7 -7 10 -15 7 -18z m415 -50 c-3 -9 -8 -14
-10 -11 -3 3 -2 9 2 15 9 16 15 13 8 -4z m-418 -34 c-21 -43 -29 -39 -8 4 9
19 18 33 21 31 2 -2 -4 -18 -13 -35z m-55 -16 c-7 -9 -15 -13 -19 -10 -3 3 1
10 9 15 21 14 24 12 10 -5z m-713 -40 c0 -8 -4 -12 -9 -9 -5 3 -6 10 -3 15 9
13 12 11 12 -6z m394 -18 c-10 -9 -11 -8 -5 6 3 10 9 15 12 12 3 -3 0 -11 -7
-18z m366 -19 c-3 -8 -6 -5 -6 6 -1 11 2 17 5 13 3 -3 4 -12 1 -19z m510 1 c9
-9 6 -17 -12 -30 -32 -26 -46 -23 -16 2 21 17 22 22 10 30 -7 5 -9 9 -3 9 5 0
15 -5 21 -11z m4 -59 c-17 -17 -31 -28 -31 -24 0 11 53 65 58 59 2 -2 -10 -18
-27 -35z m-1277 11 c3 -5 -2 -15 -12 -22 -15 -12 -16 -12 -5 2 7 9 10 19 6 22
-3 4 -4 7 0 7 3 0 8 -4 11 -9z m1285 -38 c-12 -15 -12 -16 5 -10 16 6 17 5 6
-8 -15 -18 -29 -20 -26 -2 2 15 15 37 23 37 3 0 -1 -8 -8 -17z m-1254 -22 c3
-5 2 -12 -3 -15 -5 -3 -9 1 -9 9 0 17 3 19 12 6z m79 -90 c-5 -6 -34 20 -34
30 0 5 8 1 18 -8 10 -10 17 -20 16 -22z m1551 1 c-3 -3 -11 0 -18 7 -9 10 -8
11 6 5 10 -3 15 -9 12 -12z m-323 -14 c-7 -7 -12 -8 -12 -2 0 14 12 26 19 19
2 -3 -1 -11 -7 -17z m-1165 -10 c-3 -8 -6 -5 -6 6 -1 11 2 17 5 13 3 -3 4 -12
1 -19z m133 -19 c0 -5 -5 -7 -12 -3 -8 5 -9 2 -5 -9 5 -14 3 -15 -13 -4 -18
11 -19 12 -2 19 25 10 32 9 32 -3z m1049 -12 c0 -9 -2 -8 -6 1 -2 6 -10 9 -15
6 -7 -4 -8 -2 -4 5 9 13 26 5 25 -12z m386 -15 c-6 -7 -35 18 -35 31 0 5 9 2
20 -8 11 -10 18 -20 15 -23z m-1485 -2 c0 -7 -13 -7 -38 -1 -2 1 -1 5 3 11 6
10 35 2 35 -10z m-55 0 c3 -5 1 -10 -4 -10 -6 0 -11 5 -11 10 0 6 2 10 4 10 3
0 8 -4 11 -10z m577 -6 c-12 -8 -19 -20 -16 -26 4 -7 2 -8 -5 -4 -7 5 -22 -2
-35 -16 -36 -37 -86 -77 -86 -69 0 12 140 131 153 131 6 0 1 -7 -11 -16z m558
12 c0 -3 -4 -8 -10 -11 -5 -3 -10 -1 -10 4 0 6 5 11 10 11 6 0 10 -2 10 -4z
m-1159 -23 c13 -16 12 -17 -3 -4 -17 13 -22 21 -14 21 2 0 10 -8 17 -17z m753
9 c3 -5 -1 -9 -9 -9 -8 0 -12 4 -9 9 3 4 7 8 9 8 2 0 6 -4 9 -8z m-693 -39
c-12 -20 -14 -14 -5 12 4 9 9 14 11 11 3 -2 0 -13 -6 -23z m699 -4 c-12 -9
-10 -10 8 -6 19 4 21 3 12 -8 -9 -11 -16 -12 -30 -2 -14 8 -16 13 -7 19 19 12
34 9 17 -3z m-657 -34 c-3 -9 -8 -14 -10 -11 -3 3 -2 9 2 15 9 16 15 13 8 -4z
m2109 -29 c-4 -7 -8 -5 -10 7 -2 9 -8 17 -13 17 -6 0 -7 5 -3 12 5 8 11 6 20
-7 7 -10 10 -23 6 -29z m-2082 13 c-7 -11 -14 -18 -17 -15 -3 3 0 12 7 21 18
21 23 19 10 -6z m97 6 c0 -8 -4 -12 -9 -9 -5 3 -6 10 -3 15 9 13 12 11 12 -6z
m-81 -23 c-17 -16 -18 -16 -5 5 7 12 15 20 18 17 3 -2 -3 -12 -13 -22z m2005
2 c5 -15 8 -29 5 -31 -2 -2 -8 10 -14 26 -13 38 -5 41 9 5z m-117 -35 c10 -28
15 -53 12 -56 -4 -4 -36 89 -36 104 0 15 11 -6 24 -48z m-1840 17 c-7 -19 -26
-17 -32 5 -3 12 -2 12 7 -1 8 -12 11 -12 17 3 3 10 8 16 10 14 3 -2 2 -12 -2
-21z m601 4 c-3 -5 -11 -10 -16 -10 -6 0 -7 5 -4 10 3 6 11 10 16 10 6 0 7 -4
4 -10z m-522 -25 c-3 -9 -8 -14 -10 -11 -3 3 -2 9 2 15 9 16 15 13 8 -4z m372
-5 c-3 -5 -12 -10 -18 -10 -7 0 -6 4 3 10 19 12 23 12 15 0z m-100 -20 c-10
-11 -20 -18 -23 -16 -5 6 21 35 32 36 5 0 1 -9 -9 -20z m65 6 c0 -2 -7 -7 -16
-10 -8 -3 -12 -2 -9 4 6 10 25 14 25 6z m-440 -16 c0 -5 -5 -10 -11 -10 -5 0
-7 5 -4 10 3 6 8 10 11 10 2 0 4 -4 4 -10z m23 -5 c-3 -9 -8 -14 -10 -11 -3 3
-2 9 2 15 9 16 15 13 8 -4z m97 -5 c0 -5 -2 -10 -4 -10 -3 0 -8 5 -11 10 -3 6
-1 10 4 10 6 0 11 -4 11 -10z m180 0 c0 -5 -3 -9 -7 -8 -5 1 -18 -3 -30 -10
-13 -7 -23 -9 -23 -4 0 5 10 14 23 20 29 14 37 14 37 2z m95 0 c-7 -11 -79
-50 -92 -50 -4 0 15 13 42 29 60 34 58 34 50 21z m1222 -42 c-3 -7 -5 -2 -5
12 0 14 2 19 5 13 2 -7 2 -19 0 -25z m-1348 -1 c-2 -1 -13 -9 -24 -17 -19 -14
-19 -14 -6 3 7 9 18 17 24 17 6 0 8 -1 6 -3z m0 -30 c-2 -1 -13 -9 -24 -17
-19 -14 -19 -14 -6 3 7 9 18 17 24 17 6 0 8 -1 6 -3z"/>
<path d="M2764 6578 c-68 -70 -141 -160 -179 -223 -23 -37 -10 -24 81 80 73
84 178 215 172 215 -2 0 -35 -33 -74 -72z"/>
<path d="M2459 6283 c-31 -33 -92 -109 -123 -153 -10 -13 -9 -13 8 0 15 11
103 117 149 178 19 25 0 11 -34 -25z"/>
<path d="M2160 5974 c-89 -68 -230 -193 -230 -206 0 -15 189 135 255 201 33
34 57 61 55 61 -3 0 -39 -25 -80 -56z"/>
<path d="M9737 4495 c-17 -35 -17 -36 8 -45 14 -6 35 -14 48 -19 21 -8 22 -6
22 31 0 32 -5 42 -25 53 -34 19 -34 19 -53 -20z"/>
</g>
</svg>
