<svg xmlns="http://www.w3.org/2000/svg" viewBox="0 0 24 24" id="football"><line x1="3.64" x2=".61" y1="13.43" y2="10.47" fill="#fff"></line><line x1="13.81" x2="10.78" y1="23.35" y2="20.39" fill="#fff"></line><line x1="3.64" x2=".61" y1="13.43" y2="10.47" fill="#fff"></line><line x1="13.81" x2="10.78" y1="23.35" y2="20.39" fill="#fff"></line><line x1="3.64" x2=".61" y1="13.43" y2="10.47" fill="#fff"></line><line x1="13.81" x2="10.78" y1="23.35" y2="20.39" fill="#fff"></line><line x1="6.74" x2="3.64" y1="13.18" y2="13.43" fill="#fff"></line><polyline fill="#fff" points="10.77 20.39 10.78 20.39 10.95 17.29"></polyline><polyline fill="#fff" points="10.95 17.29 10.78 20.39 10.77 20.39"></polyline><line x1="19.6" x2="16.15" y1="15.76" y2="14.56" fill="#fff"></line><line x1="16.15" x2="19.6" y1="14.56" y2="15.76" fill="#fff"></line><line x1="17.92" x2="15.16" y1="5.93" y2="8.76" fill="#fff"></line><line x1="9.34" x2="8.06" y1="7.92" y2="4.5" fill="#fff"></line><line x1="17.92" x2="15.16" y1="5.93" y2="8.76" fill="#fff"></line><line x1="9.34" x2="8.06" y1="7.92" y2="4.5" fill="#fff"></line><line x1="3.64" x2="6.74" y1="13.43" y2="13.18" fill="#fff"></line><circle cx="12" cy="12" r="11.5" fill="#e0e0e2"></circle><path fill="#fff" d="M3.5,12A11.49,11.49,0,0,1,13.5.61a11.5,11.5,0,1,0,0,22.78A11.49,11.49,0,0,1,3.5,12Z"></path><polyline fill="#8b8891" points="10.78 20.39 10.77 20.39 7.02 22.36"></polyline><polygon fill="#8b8891" points="16.15 14.56 10.95 17.29 6.74 13.18 9.34 7.92 15.16 8.76 16.15 14.56"></polygon><polyline fill="#8b8891" points="8.06 4.5 8.06 4.49 9.94 .7"></polyline><path fill="#8b8891" d="M23.37 13.75a11.46 11.46 0 0 1-3 6.18h0l-.72-4.17h0l3.75-2zM22.12 6.55l-4.2-.62h0L17.2 1.75h0a11.55 11.55 0 0 1 4.92 4.81zM8.06 4.5L9.94.7A11.32 11.32 0 0 0 3.86 3.88l4.2.62M1.76 17.23A11.45 11.45 0 0 1 .5 12a11.61 11.61 0 0 1 .1-1.53h0l3 3h0l-1.88 3.8zM10.78 20.39l3 3A11.59 11.59 0 0 1 12 23.5a11.33 11.33 0 0 1-5-1.14l3.76-2"></path><line x1="3.64" x2=".61" y1="13.43" y2="10.47" fill="#3c3b41"></line><line x1="13.81" x2="10.78" y1="23.35" y2="20.39" fill="#3c3b41"></line><line x1="3.64" x2=".61" y1="13.43" y2="10.47" fill="#3c3b41"></line><line x1="13.81" x2="10.78" y1="23.35" y2="20.39" fill="#3c3b41"></line><line x1="3.64" x2=".61" y1="13.43" y2="10.47" fill="#3c3b41"></line><line x1="13.81" x2="10.78" y1="23.35" y2="20.39" fill="#3c3b41"></line><path d="M23,16.72l0-.07a11.91,11.91,0,0,0,.66-2.12c0-.1,0-.2.06-.3s.06-.27.08-.4a.45.45,0,0,0,0-.09,11.68,11.68,0,0,0-1.28-7.4s0,0,0,0c-.19-.35-.39-.68-.61-1l0,0q-.31-.46-.67-.89h0a11.92,11.92,0,0,0-2.52-2.29L18.66,2q-.41-.27-.85-.51l-.16-.09-.22-.12-.08,0A11.77,11.77,0,0,0,9.11.37L8.8.45,8.24.61C8,.7,7.7.8,7.44.9L7.32,1c-.35.15-.68.31-1,.49l-.06,0c-.3.16-.59.34-.88.53l-.13.09q-.4.28-.78.58l-.11.09c-.28.23-.54.47-.8.72h0a12,12,0,0,0-3.4,6.82.48.48,0,0,0,0,.08c0,.05,0,.11,0,.16a11.19,11.19,0,0,0,0,2.75c0,.17.05.34.08.51s.08.52.14.77.1.39.15.58.13.45.2.67.13.38.21.57.19.44.29.66.1.25.17.38l0,0a12.06,12.06,0,0,0,5.43,5.29h0l.17.07c.26.12.52.23.79.33l.46.17.7.2.54.14c.24.05.49.09.74.13l.51.08A12.06,12.06,0,0,0,12,24c.37,0,.74,0,1.11-.06l.33,0,.45-.05.07,0a12,12,0,0,0,6.67-3.51l.06,0a12,12,0,0,0,1.84-2.52l.05-.1C22.74,17.35,22.89,17,23,16.72Zm-.61-1.22c-.07.21-.14.41-.22.61l-.17.39c-.1.21-.19.42-.3.63l-.18.32c-.12.21-.24.42-.38.62l-.21.29-.33.44L20.15,16l2.5-1.31c0,.1,0,.2-.08.3S22.47,15.33,22.42,15.49Zm.47-2-3.34,1.76-3-1-.9-5.26,2.4-2.47L21.79,7a10.66,10.66,0,0,1,1.1,6.45ZM12.37,23h-.61l-.54,0-.58-.05-.56-.09-.54-.11L9,22.57l-.55-.17-.25-.09L10.69,21l2,2ZM11,16.68l-3.69-3.6L9.63,8.47l5.1.74.87,5.08Zm-4.62-4-2.59.21L1.15,10.3A11,11,0,0,1,4.05,4.41L7.69,5l1.1,2.94ZM1.56,15.45l-.08-.23c-.08-.27-.15-.56-.22-.84,0-.07,0-.13,0-.2-.06-.29-.1-.58-.13-.88,0-.07,0-.14,0-.21C1,12.74,1,12.37,1,12c0-.14,0-.28,0-.43l2,2L1.78,16.05C1.71,15.86,1.63,15.66,1.56,15.45Zm5-13,.17-.1c.19-.1.39-.19.59-.29l.45-.2.41-.15c.24-.09.48-.17.73-.24l.06,0L7.77,4,5,3.54A11,11,0,0,1,6.61,2.42Zm11.46.41.27.19c.22.15.43.31.64.48l.1.09A11.09,11.09,0,0,1,21.15,5.9l-2.8-.41-.48-2.77Zm-1.31-.74.63,3.67L15,8.23,9.7,7.47,8.6,4.52l1.67-3.38a10.64,10.64,0,0,1,6.48.95ZM2.32,17.22,4,13.91l2.59-.21,3.89,3.8-.14,2.58L7.58,21.5,7,21.8A11.07,11.07,0,0,1,2.32,17.22ZM14,22.82c-.36-.38-1.11-1.11-2.66-2.62l.14-2.59,4.76-2.5,3,1,.63,3.63A11,11,0,0,1,14,22.82Z"></path></svg>