<svg xmlns="http://www.w3.org/2000/svg" enable-background="new 0 0 100 100" viewBox="0 0 100 100" id="gum-equipment">
  <path d="M85.1,76.4c-0.1,0-5.2-1-8.4-5.8c-2.7-4-3.3-9.5-1.9-16.3c1.8-8.4,1.1-14.5-1.9-18c-2.8-3.2-6.5-3-6.6-3h-0.5
	c0.7-5.3,0-9.3-2.3-12c-3.4-4-8.8-3.4-9-3.4h-0.2c-0.3-0.6-0.9-1-1.6-1H45c-0.7,0-1.3,0.4-1.6,1h-0.2c0,0,0,0,0,0
	c-4.5,0-8,1.4-10.3,4.3c-4.5,5.5-3.2,14.4-2.9,16.1c-1.8,3.5-3.7,5.5-5.6,7.4c-2.9,3.1-5.5,5.8-6.4,13.3h-1.2
	c-1.5,0-2.7,1.2-2.7,2.7c0,1.5,1.2,2.7,2.7,2.7h20.9c1.5,0,2.7-1.2,2.7-2.7c0-1.5-1.2-2.7-2.7-2.7h-0.9C36.8,50.7,36,48.9,34,44.3
	c-0.7-1.6-1.5-3.5-2.5-6.2c-0.1-0.6-1.8-9.8,2.6-15.1c2-2.5,5.1-3.7,9.1-3.7c0,0,0,0,0,0l0.2,0c0.3,0.6,0.9,1,1.6,1h7.6
	c0.7,0,1.3-0.4,1.6-1l0.3,0c0,0,4.9-0.5,7.8,2.9c2,2.4,2.7,6.1,1.9,11h-3.8c-0.3-0.6-0.9-1-1.6-1h-7.6c-0.7,0-1.3,0.4-1.6,1.1
	c-3.7,0.1-6.2,1.3-7.6,3.7c-3.6,6.1,2.1,17.6,3.3,19.8c-1.4,2.7-2.6,4.4-3.5,5.8c-2.3,3.3-3.5,5.1-4.4,15.4h-1.2
	c-1.5,0-2.7,1.2-2.7,2.7c0,1.5,1.2,2.7,2.7,2.7H57c1.5,0,2.7-1.2,2.7-2.7c0-1.5-1.2-2.7-2.7-2.7h-0.9c0-8.6-2.1-10.9-4.5-13.6
	c-1.5-1.7-3.3-3.7-4.8-7.8c0,0,0,0,0-0.1c0,0,0,0,0,0c-0.1-0.1-7-12.8-3.5-18.7c1.1-1.9,3.2-2.8,6.4-2.9c0.3,0.6,0.9,1,1.6,1h7.6
	c0.7,0,1.3-0.4,1.6-1l3.5,0c-0.2,1.2-0.5,2.5-0.9,3.8c-3.5,12.3-4,20.4-1.5,24.2c1.1,1.6,2.4,2.1,3.4,2.2c0,0,0.1,0,0.1,0
	c0.4,0,0.7-0.3,0.7-0.7c0.1-0.4-0.2-0.8-0.6-0.8c-1-0.1-1.7-0.6-2.3-1.6c-1.6-2.4-2.5-8.3,1.7-23c0.4-1.5,0.8-2.9,1-4.2h0.7
	c0.1,0,3.2-0.1,5.5,2.5c2.7,3.1,3.2,8.9,1.6,16.7c-1.5,7.2-0.8,13.1,2.2,17.5c3.6,5.3,9.2,6.4,9.4,6.4c0,0,0.1,0,0.1,0
	c0.4,0,0.7-0.3,0.7-0.6C85.8,76.8,85.5,76.4,85.1,76.4z M39,61.6c0,0.6-0.5,1.2-1.2,1.2H16.9c-0.6,0-1.2-0.5-1.2-1.2
	c0-0.6,0.5-1.2,1.2-1.2h20.9C38.5,60.5,39,61,39,61.6z M35.4,59H19.7c0.8-6.9,3.1-9.3,5.9-12.3c1.6-1.7,3.4-3.6,5.1-6.5
	c0.8,1.9,1.4,3.5,1.9,4.7C34.6,49.4,35.3,51.1,35.4,59z M58.2,80.5c0,0.6-0.5,1.2-1.2,1.2H36.1c-0.6,0-1.2-0.5-1.2-1.2
	c0-0.6,0.5-1.2,1.2-1.2H57C57.7,79.4,58.2,79.9,58.2,80.5z M54.6,77.9H38.8c0.9-9.8,2-11.4,4.1-14.5c0.8-1.2,1.8-2.6,3-4.8
	c1.5,3.4,3.1,5.2,4.5,6.8C52.8,67.8,54.6,69.8,54.6,77.9z"></path>
</svg>
