<svg xmlns="http://www.w3.org/2000/svg" width="45.333" height="45.333" viewBox="0 0 34 34" id="kettlebell">
  <g>
    <path d="M26.0643 20.4786C27.4674 19.3694 28.6138 18.0054 29.4109 16.4676 30.217 14.9128 30.6669 13.1825 30.6669 11.3601 30.6669 9.2322 30.0529 7.2289 28.9738 5.4845 27.8609 3.6853 26.2519 2.1634 24.3136 1.0667 24.2359 1.0225 24.1512 1.0015 24.0676 1.0018V1.0001H9.9326C9.828 1.0001 9.7311 1.0318 9.6508 1.0868 7.7281 2.1821 6.1325 3.6958 5.0261 5.4845 3.947 7.2289 3.333 9.2322 3.333 11.3601 3.333 13.1825 3.7831 14.9131 4.589 16.4673 5.3864 18.0051 6.5324 19.3694 7.9356 20.4786V24.1835 27.1811C7.9356 27.934 8.1006 28.6583 8.3996 29.3258 8.7058 30.0101 9.1531 30.6315 9.7078 31.1598L9.7699 31.2233 9.7858 31.2386 9.7855 31.2389 9.8549 31.3038 9.8827 31.3277C10.4788 31.8523 11.1875 32.2758 11.9704 32.5644 12.7301 32.8445 13.5615 32.9998 14.4292 32.9998H19.571C20.4384 32.9998 21.2698 32.8448 22.0297 32.5644 22.8206 32.273 23.5352 31.8438 24.135 31.3118 24.738 30.7766 25.2264 30.1346 25.56 29.4216 25.8846 28.7283 26.0643 27.9709 26.0643 27.1811V24.1835ZM28.5242 16.0106C27.7645 17.4762 26.6545 18.773 25.2904 19.817 25.1541 19.9063 25.0642 20.0605 25.0642 20.2354V23.6835H21.6748V21.2202C21.6748 20.9441 21.4509 20.7201 21.1748 20.7201H12.8254C12.5493 20.7201 12.3253 20.9441 12.3253 21.2202V23.6835H8.9357V20.2354H8.9342C8.9342 20.0854 8.8668 19.9372 8.7384 19.8391 7.361 18.7911 6.2413 17.4866 5.4757 16.0104 4.7424 14.5964 4.333 13.0207 4.333 11.3601 4.333 9.4192 4.8917 7.5951 5.8737 6.0077 6.8757 4.3877 8.3203 3.0098 10.0627 2.0001H23.9374C25.6796 3.0098 27.1244 4.388 28.1262 6.0077 29.1081 7.5951 29.6668 9.4192 29.6668 11.3601 29.6668 13.0207 29.2575 14.5962 28.5242 16.0106ZM8.9357 24.6835H12.3253V27.1811C12.3253 27.4229 12.3761 27.6582 12.4679 27.8768 12.56 28.095 12.6935 28.2934 12.8588 28.4624L12.8667 28.4703 12.8959 28.4975 12.9736 28.5639 12.9739 28.5636C13.1564 28.724 13.3713 28.8556 13.6077 28.9483L13.6477 28.9647C13.8906 29.0546 14.1551 29.1047 14.4292 29.1047H19.571C19.8451 29.1047 20.1095 29.0546 20.3525 28.9647L20.3522 28.9636 20.3545 28.9627C20.6082 28.8686 20.8389 28.7297 21.0322 28.5582 21.2221 28.3895 21.3789 28.1871 21.4892 27.9629L21.5033 27.9351C21.6136 27.7013 21.6748 27.4459 21.6748 27.1811V24.6835H25.0642V27.1811C25.0642 27.8269 24.9194 28.4414 24.658 28.9998 24.3828 29.5877 23.9774 30.1198 23.4751 30.5657 22.9691 31.0147 22.362 31.3784 21.6862 31.6273 21.0362 31.8671 20.321 31.9997 19.571 31.9997H14.4292C13.6791 31.9997 12.964 31.8671 12.314 31.6273 11.6478 31.3818 11.0483 31.0249 10.5463 30.5847L10.5347 30.5736 10.4692 30.5124 10.4151 30.4571H10.4148L10.4031 30.4455C9.9369 30.003 9.5627 29.4857 9.3095 28.9199 9.0686 28.3822 8.9357 27.7948 8.9357 27.1811ZM13.3254 24.1835V21.7202H20.6748V24.1835 27.1811C20.6748 27.2982 20.6484 27.4096 20.6014 27.5094L20.5914 27.5315C20.5393 27.635 20.4644 27.7305 20.3723 27.8121 20.2694 27.9031 20.1458 27.9777 20.0092 28.0287L20.0089 28.0276C19.8754 28.0769 19.7269 28.1047 19.571 28.1047H14.4292C14.2733 28.1047 14.1248 28.0769 13.9912 28.0276L13.9677 28.0196C13.8402 27.9692 13.7248 27.898 13.6278 27.8121L13.6219 27.8067 13.6222 27.8065 13.5601 27.7534C13.4855 27.6752 13.426 27.5859 13.3858 27.4901 13.3469 27.3977 13.3254 27.2931 13.3254 27.1811ZM10.4289 5.6285C10.6347 5.4465 10.654 5.1313 10.472 4.9255 10.29 4.7197 9.9748 4.7004 9.769 4.8824 8.8027 5.737 8.0467 6.7467 7.5319 7.8454 7.014 8.9512 6.7399 10.1446 6.7399 11.3601 6.7399 11.759 6.7703 12.1598 6.8295 12.5595 6.8876 12.9509 6.9769 13.3458 7.0963 13.7395 7.1759 14.0026 7.4543 14.1511 7.7173 14.0715 7.9804 13.9918 8.1289 13.7134 8.0493 13.4504 7.9478 13.1159 7.8704 12.7695 7.8177 12.4149 7.7664 12.0685 7.74 11.7156 7.74 11.3601 7.74 10.2864 7.9804 9.2358 8.4339 8.2672 8.8911 7.2916 9.5652 6.3924 10.4289 5.6285" transform="matrix(1 0 0 -1 0 34)"></path>
  </g>
</svg>
